<svg id="85c370fa-bbea-4962-9496-8e91f2d6b355" data-name="Capa 1" xmlns="http://www.w3.org/2000/svg" viewBox="0 0 6926.831 2001.192"><title>Logo_ABInBev</title><path d="M2557.484,1491.317H2443.272V1082.7c42.418-9.711,110.311-21.807,155.28-26.66,137.131,31.435,238.45,87.227,238.45,225.956,0,161.726-120.1,209.323-279.518,209.323m-114.212-920.86c48.709-2.546,66.217-2.546,98.293-2.546,152.1,0,223.012,62.637,223.012,151.617,0,84.686-56.671,137.214-150.742,164.991-39.64,11.7-105.779,24.993-170.563,36.691Zm-1213.354,641.1c-30.006,14.087-67.812,37.4-90.1,58.9,67.732-195.711,161.25-465.048,206.456-592.152l155.759,439.1c-78.077,22.443-198.976,59.931-272.118,94.154m1594.91-252.543c163.956-65.58,225.476-154.4,225.476-264.158,0-192.053-169.606-277.293-446.9-277.293H2107.083c31.357,46.96,61.126,96.942,61.126,172.71V970.793c-146.133,28.414-276.738,53.086-400.342,82.7C1657.476,752.8,1534.51,417.562,1534.51,417.562H1225.3c4.936,42.341.874,86.595-21.887,147.4l-345.5,951.183s-22.6,67.334-70.358,127.11h253.1c-4.775-33.111,1.195-76.088,10.189-102.515,25.467-74.494,94.392-124.238,166.9-156.79,94.951-42.584,260.1-94.077,337.622-116.525l82.3,231.927s33.349,87.314,15.281,143.9H2009.98c-53.883-71.872-71.871-126.231-72.187-127.027-8.2-22.045-55.554-151.141-115.086-313.27,108.955-25.786,222.852-47.675,345.5-71.313v338.181c0,65.1-26.665,122.49-60.971,173.429h471.577c77.04,0,146.127-4.46,197.7-13.214,202.638-34.7,347.731-137.374,347.731-354.814,0-166.5-113.337-265.989-299.416-316.214" transform="translate(-787.554 -417.562)" style="fill:#b7191b"/><path d="M3251.713,1643.332c60.723-90.331,60.883-172.151,60.883-173.346V591.229c0-1.273-.16-82.3-61.043-173.507h398.665c-60.887,91.21-61.043,172.234-61.043,173.507v878.757c0,1.195.156,83.015,60.8,173.346Z" transform="translate(-787.554 -417.562)" style="fill:#461c14"/><path d="M7714.385,780.105H7447.6c22.763,36.3,13.373,94.713-9.789,153.371L7265.174,1388.9l-178.84-455.419c-23.793-58.658-32.469-117.074-10.026-153.371H6731.68c47.675,49.987,77.2,113.1,94.159,153.371l296.394,709.866h230.494s5.411-58.26,31.672-122.805c.083-.083,0-.083.083-.161l238.688-586.9c16.638-40.272,49.987-110.472,91.215-153.371" transform="translate(-787.554 -417.562)" style="fill:#461c14"/><path d="M6135.385,1112.9c16.234-139.444,79.59-209.639,194.278-209.639,119.147,0,177.888,91.05,182.581,208.205,0,0-52.29,1.434-120.659,1.434Zm630.834,124.238c16.711-180.429-33.591-494.253-436.556-494.253-329.107,0-450.163,226.355-450.163,447.458,0,281.349,155.284,474.515,526.173,474.515,150.9,0,272.518-44.332,344.545-87.149l-74.1-161.886c-70.118,35.258-156.077,65.658-251.266,65.658-165.549,0-267.5-57.624-289.471-219.665h358.632c130.529,0,237.658-8.04,272.2-24.678" transform="translate(-787.554 -417.562)" style="fill:#461c14"/><path d="M4332.556,1643.332h353.7c-53.644-79.984-53.805-152.331-53.805-153.448V1028.659c0-164.83-89.937-266.47-279.994-266.47-121.217,0-221.025,53.883-294.568,119.624V780.1H3757.911c53.961,80.625,54.121,152.414,54.121,153.448v556.336c0,1.117-.16,73.464-53.961,153.448h353.7c-53.722-79.984-53.883-152.331-53.883-153.448v-460.03c45.129-45.925,109.758-79.833,180.832-79.833,108.48,0,147.8,59.3,147.8,151.7v388.163c0,1.117-.16,73.464-53.96,153.448" transform="translate(-787.554 -417.562)" style="fill:#461c14"/><path d="M5253.887,1643.25c77.045,0,148.916-4.46,200.487-13.374,198.975-33.9,346.3-134.984,346.3-351.87,0-173.9-112.3-264.634-289.71-314.937,158.467-59.692,211.631-144.694,211.631-255.962,0-191.893-158.064-289.472-442.76-289.472l-475.55.082c33.348,49.744,44.492,121.931,44.492,173.429v878.835c0,57.386-10.59,117.316-44.332,173.269ZM5222.132,566.473c152.1,0,223.012,58.5,223.012,169.445,0,109.675-63.433,175.659-210.6,175.659-28.258,0-80.071.476-110.709.155V566.473Zm25.629,498.469c174.541,0,269.89,83.972,269.89,219.831,0,121.615-73.94,210.518-274.028,210.518H5123.839V1064.942Z" transform="translate(-787.554 -417.562)" style="fill:#461c14"/><path d="M6397.34,2376.231q-30.156,20.113-73.066,30.543t-103.216,10.43q-66.5,0-120.218-19.329-53.743-19.312-91.237-55.277-37.509-35.954-57.592-87.753-20.114-51.78-20.1-115.971,0-58.74,18.553-109t54.12-87.371q35.561-37.1,86.978-58.367t117.128-21.262q65.717,0,112.88,17a270.787,270.787,0,0,1,85.045,49.489l-65.716,79.629q-.771-2.325-8.507-12.372t-23.194-21.644q-15.464-11.6-40.2-20.486-24.75-8.879-60.311-8.9-34.021,0-62.616,13.53a141.852,141.852,0,0,0-49.1,38.274q-20.492,24.75-31.7,60.693t-11.214,80.787q0,45.633,12.765,81.572,12.744,35.954,35.556,60.693a151.08,151.08,0,0,0,55.287,37.882q32.466,13.152,71.9,13.137,37.872,0,65.716-6.563a218.429,218.429,0,0,0,52.57-19.721Z" transform="translate(-787.554 -417.562)" style="fill:#461c14"/><path d="M6565.879,2411.8H6458.415V1952.556a242.869,242.869,0,0,0-4.258-44.455q-4.258-22.8-12.755-37.5h124.477v194.059a211.5,211.5,0,0,1,59.919-34.409,191.472,191.472,0,0,1,68.424-12.754q63.377,0,93.934,31.7,30.534,31.711,30.533,87.361V2411.8H6711.225V2172.9q0-31.7-14.687-49.871-14.694-18.152-51.029-18.171a106.388,106.388,0,0,0-44.456,9.282,136.9,136.9,0,0,0-35.174,22.419Z" transform="translate(-787.554 -417.562)" style="fill:#461c14"/><path d="M6916.872,2411.8V2107.184a242.883,242.883,0,0,0-4.259-44.456q-4.258-22.8-12.754-37.5h124.477V2411.8Zm-9.282-502.539q0-25.521,18.171-43.3a60.2,60.2,0,0,1,43.68-17.778q24.734,0,42.9,17.778t18.171,43.3q0,25.5-18.171,43.3t-42.9,17.778q-25.519,0-43.68-17.778Q6907.58,1934.768,6907.59,1909.259Z" transform="translate(-787.554 -417.562)" style="fill:#461c14"/><path d="M7127.934,2411.8V1952.556a242.957,242.957,0,0,0-4.258-44.455q-4.258-22.8-12.755-37.5H7235.4v541.2Z" transform="translate(-787.554 -417.562)" style="fill:#461c14"/><path d="M7695.4,2233.976q-10.9,6.191-42.8,8.507-31.922,2.31-74.706,2.315h-155.4q3.865,25.52,15.08,43.68a87.634,87.634,0,0,0,28.6,28.993,127.6,127.6,0,0,0,39.432,15.855,213.505,213.505,0,0,0,47.546,5.024,234.688,234.688,0,0,0,85.045-15.463l38.657,64.166q-23.964,14.693-58.76,23.194t-77.314,8.507q-59.541,0-102.924-15.08-43.4-15.07-71.8-42.523a168.882,168.882,0,0,1-42.039-65.324q-13.636-37.872-13.631-83.505a245.916,245.916,0,0,1,10.45-71.122,171.629,171.629,0,0,1,33.7-62.244q23.223-27.421,60.421-44.455,37.193-16.989,90.642-17,65.069,0,103.81,22.8,38.733,22.817,58.871,56.053a181.81,181.81,0,0,1,25.178,70.75Q7698.5,2204.611,7695.4,2233.976Zm-112.87-54.12q-1.539-39.426-20.395-64.176-18.846-24.733-57.321-24.734-36.165,0-56.938,23.194t-24.614,65.716Z" transform="translate(-787.554 -417.562)" style="fill:#461c14"/></svg>