<?xml version="1.0" encoding="utf-8"?>
<!-- Generator: Adobe Illustrator 22.1.0, SVG Export Plug-In . SVG Version: 6.00 Build 0)  -->
<svg version="1.2" baseProfile="tiny" id="Capa_1" xmlns="http://www.w3.org/2000/svg" xmlns:xlink="http://www.w3.org/1999/xlink"
	 x="0px" y="0px" width="850.394px" height="378.194px" viewBox="0 0 850.394 378.194" xml:space="preserve">
<g>
	<path fill="#FFFFFF" d="M235.811,123.328c-34.416,0.036-62.863,27.365-63.265,62.478c-0.402,35.215,27.652,63.763,62.935,63.899
		c35.41,0.137,63.377-28.352,63.431-63.09C298.967,151.856,270.986,123.488,235.811,123.328z M235.526,115.047
		c1.155-2.728,2.153-5.064,3.135-7.406c7.961-18.999,15.92-37.998,23.879-56.998c0.738-1.763,1.478-3.525,2.196-5.296
		c0.412-1.014,0.394-1.022-0.604-1.271c-0.257-0.064-0.512-0.142-0.773-0.191c-7.523-1.409-15.109-2.281-22.758-2.555
		c-5.79-0.207-11.569-0.004-17.346,0.488c-5.083,0.432-10.12,1.155-15.132,2.073c-2.229,0.408-2.23,0.45-1.366,2.513
		c7.857,18.754,15.716,37.507,23.575,56.26C232.015,106.675,233.697,110.686,235.526,115.047z M733.792,189.392
		c0,7.388-0.002,14.777,0.003,22.165c0.001,0.69-0.005,1.386,0.078,2.069c0.37,3.035,2.431,5.161,5.416,5.647
		c0.736,0.12,1.471,0.181,2.219,0.181c14.883-0.007,29.767-0.004,44.65-0.006c0.636,0,1.267-0.006,1.903-0.124
		c2.362-0.435,3.645-1.778,3.908-4.157c0.371-3.365-0.593-5.54-2.861-6.455c-0.546-0.22-1.112-0.36-1.702-0.383
		c-0.584-0.023-1.169-0.04-1.753-0.04c-12.438,0-24.876,0.003-37.314,0.003c-0.371,0-0.747,0.009-1.113-0.043
		c-1.164-0.164-1.919-0.792-2.257-1.952c-0.212-0.729-0.258-1.464-0.266-2.206c-0.016-1.541-0.006-3.083-0.005-4.624
		c0-3.067,0.08-3.149,3.252-3.152c5.741-0.004,11.481,0.006,17.222-0.005c3.178-0.006,5.343-1.924,5.633-5.083
		c0.225-2.444-0.619-5.36-3.726-6.306c-0.774-0.236-1.574-0.218-2.37-0.218c-5.634-0.001-11.269,0.009-16.903-0.006
		c-2.098-0.006-2.763-0.679-2.784-2.771c-0.021-2.02-0.022-4.04,0.001-6.06c0.02-1.71,0.711-2.557,2.398-2.828
		c0.885-0.142,1.801-0.133,2.703-0.134c11.854-0.008,23.707-0.005,35.56-0.006c0.478,0,0.961,0.033,1.434-0.016
		c1.714-0.178,3.213-0.803,4.144-2.336c1.886-3.105,0.87-7.993-3.144-9.411c-1.27-0.449-2.584-0.568-3.921-0.568
		c-14.511,0-29.022-0.005-43.533-0.013c-0.906-0.001-1.801,0.035-2.689,0.248c-2.354,0.564-3.775,2.094-4.089,4.515
		c-0.095,0.734-0.089,1.485-0.089,2.228C733.79,174.828,733.792,182.11,733.792,189.392z M613.47,189.064
		c0-7.812,0.003-15.624-0.005-23.436c-0.001-0.688-0.014-1.386-0.119-2.064c-0.297-1.934-1.563-3.24-3.467-3.71
		c-1.161-0.286-2.308-0.255-3.473-0.023c-2.794,0.556-4.237,2.261-4.243,5.103c-0.01,4.57-0.001,9.14-0.006,13.711
		c-0.001,0.584,0.008,1.174-0.068,1.75c-0.24,1.825-1.272,2.875-3.09,3.107c-0.893,0.114-1.8,0.163-2.701,0.164
		c-8.184,0.012-16.368,0.012-24.552,0c-0.794-0.001-1.598-0.042-2.38-0.168c-1.34-0.215-2.07-0.973-2.245-2.323
		c-0.095-0.734-0.075-1.485-0.076-2.228c-0.006-5.049,0.005-10.097-0.006-15.146c-0.005-2.217-1.054-3.716-3.107-4.519
		c-3.254-1.272-6.647,0.101-8.147,3.274c-0.818,1.729-0.971,3.56-0.97,5.436c0.01,14.455,0.005,28.909,0.007,43.364
		c0,0.531,0.008,1.063,0.044,1.593c0.278,4.087,3.187,6.335,7.211,5.58c2.221-0.417,3.69-1.907,4.024-4.159
		c0.116-0.784,0.146-1.587,0.149-2.382c0.014-4.039,0.003-8.078,0.011-12.116c0.001-0.636,0.022-1.277,0.101-1.907
		c0.153-1.221,0.838-2.013,2.01-2.424c0.878-0.307,1.776-0.29,2.677-0.29c8.662-0.004,17.324-0.004,25.987,0.002
		c0.636,0,1.281-0.001,1.908,0.095c1.842,0.28,2.585,1.146,2.591,3c0.008,2.976-0.008,5.952-0.011,8.928
		c-0.002,2.285-0.033,4.571,0.01,6.855c0.042,2.224,1.19,3.709,3.293,4.364c1.179,0.367,2.394,0.487,3.623,0.354
		c2.922-0.317,4.704-2.136,4.967-5.076c0.052-0.581,0.052-1.167,0.052-1.751C613.471,204.369,613.47,196.716,613.47,189.064z
		 M517.467,216.444c0-0.022,0-0.044,0-0.066c4.732,0,9.464-0.042,14.195,0.021c1.858,0.025,2.993-0.883,3.786-2.398
		c0.529-1.01,0.692-2.108,0.631-3.246c-0.112-2.093-1.267-3.613-3.261-4.247c-0.869-0.277-1.763-0.342-2.675-0.34
		c-7.922,0.012-15.846,0.121-23.764-0.03c-6.07-0.116-10.949-2.777-14.376-7.842c-2.973-4.393-3.233-9.348-2.656-14.411
		c0.217-1.905,0.733-3.767,1.622-5.474c2.737-5.253,6.772-8.388,13.015-8.317c8.558,0.097,17.118-0.001,25.677-0.055
		c3.335-0.021,5.972-2.677,5.917-5.838c-0.058-3.307-2.55-5.713-5.946-5.727c-7.176-0.028-14.353,0.023-21.528-0.1
		c-4.396-0.075-8.55,0.839-12.552,2.527c-6.58,2.776-11.834,7.054-15.016,13.598c-2.439,5.015-3.096,10.359-2.724,15.838
		c0.344,5.062,1.761,9.82,4.715,14.022c4.163,5.922,9.994,9.394,16.837,11.341c1.482,0.422,2.987,0.749,4.545,0.747
		C508.43,216.44,512.948,216.444,517.467,216.444z M664.082,189.715c-0.022,0-0.044,0-0.066,0c0,8.077-0.002,16.154,0.001,24.23
		c0.001,2.563,0.968,3.919,3.425,4.702c1.426,0.454,2.911,0.564,4.404,0.563c15.038-0.002,30.076-0.001,45.115-0.003
		c0.531,0,1.069,0.025,1.592-0.047c1.799-0.247,3.266-1.027,3.89-2.843c1.409-4.1-0.613-7.723-4.467-8.753
		c-0.732-0.195-1.475-0.158-2.217-0.158c-11.478-0.003-22.956-0.002-34.434-0.003c-0.478,0-0.96,0.025-1.434-0.02
		c-1.76-0.167-2.939-1.06-3.509-2.772c-0.311-0.934-0.301-1.882-0.303-2.836c-0.031-11.902-0.056-23.803-0.087-35.705
		c-0.002-0.636-0.043-1.272-0.078-1.908c-0.039-0.715-0.344-1.327-0.765-1.892c-1.57-2.103-4.52-2.983-7.162-2.089
		c-2.719,0.92-3.961,2.601-3.931,5.62C664.135,173.773,664.082,181.744,664.082,189.715z M632.754,189.563c-0.057,0-0.114,0-0.171,0
		c0,8.126-0.007,16.252,0.004,24.378c0.003,2.545,1.022,3.92,3.442,4.716c1.386,0.456,2.799,0.512,4.238,0.279
		c2.906-0.47,4.354-2.143,4.353-5.086c-0.004-12.43-0.007-24.86-0.017-37.29c-0.003-3.877-0.056-7.755-0.029-11.632
		c0.011-1.581-0.657-2.757-1.851-3.687c-1.549-1.206-3.308-1.647-5.244-1.315c-3.092,0.531-4.724,2.464-4.725,5.575
		C632.753,173.522,632.754,181.542,632.754,189.563z M830.989,210.214c0.279-6.568-5.59-10.201-10.197-10.123
		c-5.789,0.098-10.315,4.469-10.305,10.141c0.01,5.707,4.485,9.984,10.322,10.096C825.628,220.422,831.289,216.602,830.989,210.214z
		"/>
	<path fill="#77777A" d="M103.799,247.326c1.229,3.239,2.926,6.25,4.586,9.273c5.418,9.869,11.922,18.974,19.475,27.32
		c10.787,11.919,23.2,21.806,37.246,29.634c13.469,7.507,27.788,12.694,42.916,15.633c5.212,1.012,10.472,1.726,15.775,2.117
		c4.93,0.364,9.862,0.622,14.806,0.501c19.995-0.492,39.144-4.707,57.37-13.018c12.703-5.793,24.33-13.256,34.872-22.4
		c15.466-13.414,27.578-29.385,36.37-47.874c0.182-0.383,0.32-0.786,0.478-1.18c0.207,0.038,0.417,0.061,0.619,0.116
		c3.894,1.044,7.841,1.843,11.868,2.057c2.74,0.146,5.474,0.333,8.245,0.125c3.229-0.243,6.419-0.625,9.6-1.204
		c2.454-0.447,4.798-1.309,7.238-1.797c-1.558,4.856-3.556,9.538-5.661,14.174c-6.357,13.996-14.396,26.952-24.072,38.898
		c-10.22,12.618-21.935,23.645-35.131,33.101c-15.176,10.874-31.643,19.194-49.411,24.933c-9.354,3.021-18.894,5.24-28.618,6.695
		c-5.934,0.888-11.898,1.417-17.878,1.817c-0.324,0.022-0.779-0.176-0.917,0.362c-5.21,0-10.421,0-15.631,0
		c-0.102-0.441-0.473-0.34-0.765-0.362c-3.491-0.257-6.983-0.484-10.467-0.852c-6.017-0.637-11.98-1.581-17.906-2.806
		c-12.782-2.643-25.104-6.691-36.997-12.052c-13.084-5.898-25.28-13.275-36.602-22.093c-6.883-5.36-13.356-11.181-19.38-17.489
		c-11.245-11.777-20.789-24.801-28.508-39.151c-4.207-7.821-7.87-15.884-10.853-24.253c-0.106-0.296-0.168-0.608-0.25-0.912
		c0.312,0.056,0.632,0.08,0.933,0.171c3.861,1.167,7.778,2.023,11.796,2.484c1.749,0.201,3.513,0.07,5.23,0.341
		c2.829,0.446,5.619-0.054,8.404-0.229C96.378,249.167,100.107,248.283,103.799,247.326z"/>
	<path fill="#0D4785" d="M235.811,123.328c35.176,0.16,63.156,28.528,63.102,63.288c-0.054,34.738-28.021,63.227-63.431,63.09
		c-35.284-0.136-63.338-28.685-62.935-63.899C172.947,150.693,201.395,123.364,235.811,123.328z M208.642,188.672
		c-0.052,0-0.103,0-0.155,0c0,8.078,0.006,16.155-0.006,24.233c-0.002,1.317,0.491,2.389,1.496,3.201
		c1.993,1.61,4.195,1.639,6.451,0.681c2.091-0.888,2.7-2.588,2.692-4.771c-0.046-12.596-0.023-25.192-0.022-37.788
		c0-0.743,0-1.482,0.137-2.222c0.249-1.349,1.045-2.154,2.322-2.56c0.877-0.279,1.776-0.297,2.68-0.297
		c8.397,0.001,16.796,0.071,25.192-0.041c2.615-0.035,5.299,1.876,6.032,4.524c0.305,1.102,0.316,2.204,0.263,3.317
		c-0.163,3.416-2.568,5.991-6.169,5.895c-4.461-0.119-8.928-0.03-13.393-0.025c-0.584,0.001-1.174-0.007-1.751,0.068
		c-2.237,0.292-3.835,1.731-4.218,3.756c-0.768,4.059,1.634,6.914,5.766,6.869c4.942-0.054,9.885-0.188,14.824-0.105
		c2.338,0.039,4.386-0.586,6.364-1.69c6.974-3.895,10.52-10.674,9.344-18.52c-1.053-7.029-5.477-11.394-11.893-13.955
		c-1.147-0.458-2.335-0.628-3.58-0.627c-9.566,0.005-19.133-0.026-28.699-0.042c-2.444-0.004-4.894-0.1-7.331,0.031
		c-3.849,0.207-6.229,2.793-6.27,6.636c-0.039,3.719-0.063,7.439-0.075,11.159C208.632,180.489,208.642,184.58,208.642,188.672z"/>
	<path fill="#0D4785" d="M103.799,247.326c-3.692,0.957-7.421,1.842-11.221,2.08c-2.785,0.175-5.575,0.675-8.404,0.229
		c-1.718-0.271-3.482-0.14-5.23-0.341c-4.018-0.461-7.935-1.317-11.796-2.484c-0.301-0.091-0.621-0.116-0.933-0.171
		c-0.468-0.376-1.05-0.491-1.591-0.704c-21.208-8.336-34.987-23.458-40.025-45.684c-7.258-32.021,10.903-62.445,40.034-73.134
		c0.546-0.2,1.127-0.318,1.596-0.694c0.31-0.061,0.627-0.095,0.928-0.186c7.298-2.224,14.723-3.233,22.379-2.797
		c4.84,0.276,9.545,1.109,14.212,2.313c4.405,1.412,8.725,3.035,12.76,5.329c17.382,9.885,28.267,24.6,31.859,44.263
		c5.807,31.79-13.154,61.757-42.777,71.337C104.986,246.875,104.396,247.109,103.799,247.326z M92.241,215.745c0,0.01,0,0.02,0,0.03
		c4.783,0,9.566,0,14.349,0c0.372,0,0.744-0.011,1.116-0.002c0.442,0.012,0.707-0.147,0.693-0.633
		c-0.009-0.319,0.004-0.638,0.004-0.956c0-8.981,0.001-17.962-0.002-26.943c0-0.531-0.008-1.064-0.06-1.592
		c-0.224-2.251-1.515-3.487-3.844-3.708c-2.732-0.259-4.767,0.863-5.354,2.975c-0.099,0.355-0.127,0.733-0.15,1.103
		c-0.026,0.424-0.013,0.85-0.013,1.275c0,5.527,0,11.054,0,16.581c0,0.372-0.014,0.744-0.003,1.116
		c0.017,0.541-0.245,0.775-0.773,0.758c-0.318-0.01-0.638,0.004-0.956,0.002c-5.791-0.043-11.589,0.075-17.371-0.171
		c-7.287-0.31-12.696-3.893-15.52-10.606c-2.541-6.041-2.012-12.175,1.134-17.971c1.56-2.875,3.91-5.005,6.83-6.49
		c1.346-0.685,2.752-1.014,4.288-1.009c9.14,0.034,18.281,0.033,27.422,0.008c3.147-0.009,5.719-2.423,5.85-5.377
		c0.153-3.418-1.898-5.847-5.266-6.209c-0.632-0.068-1.273-0.071-1.909-0.071c-6.749-0.005-13.499,0.072-20.247-0.026
		c-5.673-0.082-10.933,1.371-15.897,3.961c-7.572,3.951-12.407,10.054-13.88,18.548c-1.306,7.528-0.461,14.837,3.005,21.713
		c3.009,5.969,7.731,10.035,14.094,12.159c2.893,0.965,5.865,1.501,8.911,1.527C83.207,215.774,87.724,215.745,92.241,215.745z"/>
	<path fill="#0D4785" d="M405.262,246.629c-2.44,0.488-4.784,1.35-7.238,1.797c-3.181,0.579-6.371,0.961-9.6,1.204
		c-2.771,0.208-5.505,0.021-8.245-0.125c-4.027-0.215-7.974-1.013-11.868-2.057c-0.202-0.054-0.413-0.078-0.619-0.116
		c-1.499-0.528-3.019-1.001-4.493-1.593c-21.883-8.792-35.628-24.678-40.045-47.825c-6.046-31.687,12.809-62.24,43.655-71.838
		c0.302-0.094,0.593-0.227,0.889-0.341c5.953-1.637,12.023-2.43,18.191-2.465c1.214-0.007,2.427,0.198,3.643,0.229
		c2.443,0.063,4.842,0.46,7.242,0.866c2.876,0.487,5.65,1.384,8.476,2.071c0.418,0.354,0.952,0.446,1.443,0.639
		c22.001,8.637,35.943,24.414,40.542,47.596c6.138,30.938-11.485,60.334-39.791,71.032
		C406.706,245.981,405.907,246.127,405.262,246.629z M382.04,218.368c5.848,0,11.697,0.024,17.545-0.006
		c7.287-0.038,13.594-4.792,15.705-11.778c0.763-2.524,1.01-5.11,0.802-7.725c-0.332-4.171-1.762-7.88-4.94-10.732
		c-3.376-3.03-7.38-4.598-11.91-4.629c-7.762-0.054-15.525-0.014-23.287-0.016c-0.531,0-1.066,0.015-1.594-0.035
		c-2.851-0.272-4.545-1.78-5.214-4.561c-0.164-0.682-0.209-1.364-0.207-2.055c0.009-2.598,1.254-4.451,3.655-5.449
		c1.247-0.518,2.549-0.674,3.895-0.673c11.271,0.013,22.543,0.028,33.814-0.004c4.427-0.012,6.301-2.168,5.857-6.564
		c-0.234-2.314-1.574-3.798-3.87-4.236c-0.992-0.189-1.996-0.275-3.012-0.274c-11.697,0.009-23.393-0.001-35.09,0.008
		c-7.297,0.006-14.138,5.225-16.142,12.233c-0.775,2.711-0.807,5.462-0.563,8.222c0.593,6.73,4.607,11.649,10.899,13.456
		c1.647,0.473,3.33,0.655,5.04,0.654c5.689-0.003,11.378-0.001,17.067-0.001c2.499,0,4.998,0.002,7.497-0.001
		c1.348-0.001,2.642,0.185,3.811,0.937c2.438,1.567,3.486,4.572,2.62,7.575c-0.884,3.063-2.669,4.374-5.962,4.374
		c-11.271,0.001-22.543,0.007-33.814-0.007c-1.46-0.002-2.856,0.201-4.163,0.873c-2.242,1.153-2.926,3.076-2.72,5.457
		c0.201,2.322,1.416,3.873,3.585,4.575c1.135,0.367,2.302,0.379,3.471,0.381C370.556,218.373,376.298,218.369,382.04,218.368z"/>
	<path fill="#77777A" d="M405.25,126.436c-2.826-0.687-5.6-1.584-8.476-2.071c-2.401-0.406-4.799-0.803-7.242-0.866
		c-1.216-0.031-2.429-0.236-3.643-0.229c-6.168,0.034-12.238,0.827-18.191,2.465c-1.703-4.135-3.859-8.041-6.09-11.904
		c-5.361-9.281-11.687-17.848-18.952-25.737c-12.344-13.403-26.691-24.113-43.024-32.161c-10.523-5.185-21.547-8.962-33.006-11.473
		c-1.216-0.267-1.237-0.287-0.771-1.403c4.197-10.045,8.401-20.087,12.61-30.127c0.447-1.067,0.471-1.074,1.627-0.786
		c10.381,2.586,20.418,6.16,30.15,10.592c14.98,6.823,28.756,15.558,41.342,26.16c13.003,10.952,24.247,23.496,33.708,37.62
		c8.167,12.192,14.759,25.191,19.723,39.007C405.122,125.817,405.173,126.131,405.25,126.436z"/>
	<path fill="#77777A" d="M103.748,125.751c-4.667-1.203-9.372-2.037-14.212-2.313c-7.656-0.436-15.08,0.573-22.379,2.797
		c-0.3,0.091-0.618,0.126-0.928,0.186c0.877-3.294,2.26-6.402,3.573-9.53c7.212-17.175,16.88-32.851,28.963-47.023
		c13.036-15.289,28.215-28.047,45.504-38.292c14.572-8.635,30.076-15.024,46.454-19.312c1.406-0.368,1.429-0.376,1.917,0.786
		c4.232,10.086,8.455,20.176,12.679,30.265c0.12,0.287,0.333,0.557,0.194,0.932c-2.957,0.75-5.951,1.441-8.906,2.27
		c-20.776,5.824-39.347,15.775-55.701,29.855c-13.968,12.026-25.241,26.197-33.841,42.498
		C105.875,121.125,104.667,123.369,103.748,125.751z"/>
	<path fill="#77777A" d="M235.526,115.047c-1.829-4.361-3.511-8.371-5.192-12.383c-7.859-18.753-15.718-37.506-23.575-56.26
		c-0.864-2.062-0.864-2.105,1.366-2.513c5.012-0.918,10.048-1.641,15.132-2.073c5.776-0.491,11.555-0.694,17.346-0.488
		c7.649,0.273,15.235,1.146,22.758,2.555c0.26,0.049,0.515,0.126,0.773,0.191c0.997,0.249,1.015,0.257,0.604,1.271
		c-0.719,1.771-1.458,3.533-2.196,5.296c-7.958,19-15.917,37.999-23.879,56.998C237.679,109.983,236.681,112.319,235.526,115.047z"
		/>
	<path fill="#0D4785" d="M733.792,189.392c0-7.282-0.002-14.564,0.004-21.847c0.001-0.743-0.006-1.494,0.089-2.228
		c0.314-2.421,1.735-3.951,4.089-4.515c0.888-0.213,1.783-0.248,2.689-0.248c14.511,0.008,29.022,0.013,43.533,0.013
		c1.337,0,2.651,0.119,3.921,0.568c4.014,1.419,5.03,6.307,3.144,9.411c-0.931,1.533-2.43,2.158-4.144,2.336
		c-0.474,0.049-0.956,0.016-1.434,0.016c-11.853,0-23.707-0.002-35.56,0.006c-0.902,0.001-1.817-0.008-2.703,0.134
		c-1.687,0.271-2.379,1.118-2.398,2.828c-0.023,2.02-0.022,4.04-0.001,6.06c0.021,2.092,0.686,2.765,2.784,2.771
		c5.634,0.016,11.269,0.005,16.903,0.006c0.796,0,1.596-0.017,2.37,0.218c3.107,0.947,3.951,3.863,3.726,6.306
		c-0.291,3.159-2.455,5.077-5.633,5.083c-5.741,0.01-11.481,0-17.222,0.005c-3.172,0.002-3.251,0.084-3.252,3.152
		c0,1.541-0.01,3.083,0.005,4.624c0.008,0.742,0.054,1.477,0.266,2.206c0.338,1.159,1.093,1.788,2.257,1.952
		c0.366,0.052,0.742,0.043,1.113,0.043c12.438,0,24.876-0.003,37.314-0.003c0.584,0,1.169,0.018,1.753,0.04
		c0.589,0.023,1.155,0.163,1.702,0.383c2.268,0.915,3.232,3.09,2.861,6.455c-0.262,2.38-1.546,3.723-3.908,4.157
		c-0.636,0.117-1.267,0.123-1.903,0.124c-14.883,0.001-29.767-0.001-44.65,0.006c-0.747,0-1.482-0.061-2.219-0.181
		c-2.984-0.485-5.046-2.612-5.416-5.647c-0.083-0.683-0.078-1.379-0.078-2.069C733.79,204.169,733.792,196.781,733.792,189.392z"/>
	<path fill="#0D4785" d="M613.47,189.064c0,7.652,0.001,15.305-0.002,22.957c0,0.584,0,1.17-0.052,1.751
		c-0.263,2.94-2.045,4.759-4.967,5.076c-1.229,0.133-2.444,0.014-3.623-0.354c-2.103-0.655-3.25-2.14-3.293-4.364
		c-0.044-2.284-0.012-4.57-0.01-6.855c0.003-2.976,0.02-5.952,0.011-8.928c-0.005-1.854-0.748-2.72-2.591-3
		c-0.626-0.095-1.271-0.094-1.908-0.095c-8.662-0.006-17.324-0.005-25.987-0.002c-0.901,0-1.799-0.017-2.677,0.29
		c-1.172,0.411-1.858,1.203-2.01,2.424c-0.079,0.63-0.099,1.271-0.101,1.907c-0.009,4.039,0.003,8.078-0.011,12.116
		c-0.003,0.795-0.033,1.597-0.149,2.382c-0.334,2.251-1.803,3.742-4.024,4.159c-4.024,0.756-6.934-1.492-7.211-5.58
		c-0.036-0.53-0.044-1.062-0.044-1.593c-0.002-14.455,0.003-28.909-0.007-43.364c-0.001-1.876,0.152-3.707,0.97-5.436
		c1.5-3.173,4.893-4.546,8.147-3.274c2.053,0.803,3.102,2.302,3.107,4.519c0.011,5.048,0.001,10.097,0.006,15.146
		c0.001,0.743-0.018,1.494,0.076,2.228c0.174,1.35,0.905,2.108,2.245,2.323c0.783,0.126,1.586,0.167,2.38,0.168
		c8.184,0.011,16.368,0.012,24.552,0c0.901-0.001,1.808-0.05,2.701-0.164c1.817-0.232,2.85-1.282,3.09-3.107
		c0.076-0.577,0.067-1.166,0.068-1.75c0.005-4.57-0.004-9.14,0.006-13.711c0.006-2.842,1.449-4.547,4.243-5.103
		c1.165-0.232,2.312-0.264,3.473,0.023c1.904,0.47,3.169,1.776,3.467,3.71c0.104,0.678,0.118,1.375,0.119,2.064
		C613.473,173.44,613.47,181.252,613.47,189.064z"/>
	<path fill="#0D4785" d="M517.467,216.444c-4.519,0-9.037-0.004-13.556,0.002c-1.558,0.002-3.063-0.325-4.545-0.747
		c-6.844-1.948-12.675-5.419-16.837-11.341c-2.954-4.202-4.371-8.96-4.715-14.022c-0.372-5.479,0.285-10.823,2.724-15.838
		c3.182-6.544,8.436-10.822,15.016-13.598c4.002-1.688,8.156-2.602,12.552-2.527c7.174,0.122,14.352,0.072,21.528,0.1
		c3.396,0.013,5.888,2.42,5.946,5.727c0.055,3.161-2.582,5.817-5.917,5.838c-8.559,0.054-17.119,0.153-25.677,0.055
		c-6.243-0.071-10.278,3.064-13.015,8.317c-0.89,1.708-1.405,3.569-1.622,5.474c-0.577,5.063-0.317,10.018,2.656,14.411
		c3.427,5.065,8.306,7.727,14.376,7.842c7.919,0.151,15.843,0.042,23.764,0.03c0.912-0.001,1.805,0.063,2.675,0.34
		c1.994,0.635,3.148,2.154,3.261,4.247c0.061,1.138-0.102,2.236-0.631,3.246c-0.794,1.515-1.929,2.423-3.786,2.398
		c-4.731-0.064-9.463-0.021-14.195-0.021C517.467,216.401,517.467,216.423,517.467,216.444z"/>
	<path fill="#0D4785" d="M664.082,189.715c0-7.971,0.053-15.942-0.027-23.912c-0.03-3.019,1.212-4.7,3.931-5.62
		c2.643-0.894,5.592-0.014,7.162,2.089c0.422,0.565,0.726,1.176,0.765,1.892c0.035,0.636,0.076,1.272,0.078,1.908
		c0.032,11.902,0.057,23.803,0.087,35.705c0.002,0.954-0.008,1.901,0.303,2.836c0.569,1.712,1.749,2.605,3.509,2.772
		c0.474,0.045,0.956,0.02,1.434,0.02c11.478,0.001,22.956,0,34.434,0.003c0.741,0,1.485-0.037,2.217,0.158
		c3.853,1.029,5.875,4.653,4.467,8.753c-0.624,1.816-2.091,2.596-3.89,2.843c-0.523,0.072-1.061,0.047-1.592,0.047
		c-15.038,0.002-30.076,0.001-45.115,0.003c-1.493,0-2.978-0.109-4.404-0.563c-2.456-0.783-3.424-2.139-3.425-4.702
		c-0.003-8.077-0.001-16.154-0.001-24.23C664.038,189.715,664.06,189.715,664.082,189.715z"/>
	<path fill="#0D4785" d="M632.754,189.563c0-8.021-0.001-16.041,0-24.062c0.001-3.111,1.633-5.043,4.725-5.575
		c1.936-0.333,3.695,0.108,5.244,1.315c1.194,0.93,1.861,2.106,1.851,3.687c-0.026,3.877,0.026,7.754,0.029,11.632
		c0.01,12.43,0.013,24.86,0.017,37.29c0.001,2.944-1.447,4.617-4.353,5.086c-1.439,0.233-2.852,0.177-4.238-0.279
		c-2.42-0.796-3.439-2.171-3.442-4.716c-0.011-8.126-0.004-16.252-0.004-24.378C632.64,189.563,632.697,189.563,632.754,189.563z"/>
	<path fill="#0D4785" d="M830.989,210.214c0.301,6.388-5.36,10.208-10.18,10.115c-5.837-0.112-10.312-4.389-10.322-10.096
		c-0.01-5.672,4.516-10.043,10.305-10.141C825.398,200.014,831.267,203.647,830.989,210.214z M826.04,216.374
		c0.617-0.125,0.977-0.571,1.333-1.037c1.249-1.636,1.639-3.492,1.644-5.527c0.011-4.453-4.562-9.76-11.232-7.409
		c-3.637,1.282-5.684,5.198-5.093,9.3c0.828,5.743,7.65,8.832,12.5,5.649c0.37-0.243,0.902-0.394,0.881-1.002L826.04,216.374z"/>
	<path fill="#FFFFFF" d="M208.642,188.672c0-4.092-0.01-8.183,0.003-12.275c0.011-3.72,0.035-7.439,0.075-11.159
		c0.04-3.842,2.421-6.428,6.27-6.636c2.437-0.131,4.887-0.035,7.331-0.031c9.566,0.016,19.133,0.046,28.699,0.042
		c1.244-0.001,2.433,0.17,3.58,0.627c6.417,2.561,10.84,6.926,11.893,13.955c1.176,7.846-2.37,14.625-9.344,18.52
		c-1.978,1.105-4.026,1.729-6.364,1.69c-4.939-0.082-9.883,0.051-14.824,0.105c-4.132,0.045-6.534-2.81-5.766-6.869
		c0.383-2.024,1.981-3.464,4.218-3.756c0.577-0.075,1.167-0.067,1.751-0.068c4.464-0.005,8.931-0.094,13.393,0.025
		c3.601,0.096,6.005-2.479,6.169-5.895c0.053-1.113,0.042-2.215-0.263-3.317c-0.734-2.649-3.418-4.559-6.032-4.524
		c-8.396,0.112-16.794,0.042-25.192,0.041c-0.905,0-1.803,0.018-2.68,0.297c-1.277,0.406-2.073,1.211-2.322,2.56
		c-0.137,0.741-0.137,1.479-0.137,2.222c-0.001,12.596-0.024,25.192,0.022,37.788c0.008,2.183-0.601,3.883-2.692,4.771
		c-2.256,0.958-4.458,0.929-6.451-0.681c-1.005-0.812-1.497-1.883-1.496-3.201c0.011-8.078,0.006-16.155,0.006-24.233
		C208.539,188.672,208.59,188.672,208.642,188.672z"/>
	<path fill="#FFFFFF" d="M92.241,215.745c-4.517,0-9.034,0.028-13.551-0.01c-3.046-0.026-6.018-0.562-8.911-1.527
		c-6.364-2.124-11.085-6.19-14.094-12.159c-3.466-6.876-4.311-14.185-3.005-21.713c1.473-8.494,6.308-14.597,13.88-18.548
		c4.964-2.59,10.223-4.043,15.897-3.961c6.748,0.098,13.498,0.021,20.247,0.026c0.637,0,1.278,0.003,1.909,0.071
		c3.369,0.362,5.419,2.79,5.266,6.209c-0.132,2.954-2.703,5.368-5.85,5.377c-9.14,0.025-18.281,0.027-27.422-0.008
		c-1.535-0.006-2.941,0.324-4.288,1.009c-2.92,1.486-5.27,3.615-6.83,6.49c-3.146,5.796-3.675,11.93-1.134,17.971
		c2.824,6.713,8.233,10.296,15.52,10.606c5.782,0.246,11.58,0.128,17.371,0.171c0.319,0.002,0.638-0.012,0.956-0.002
		c0.528,0.017,0.789-0.217,0.773-0.758c-0.011-0.372,0.003-0.744,0.003-1.116c0-5.527,0-11.054,0-16.581
		c0-0.425-0.014-0.851,0.013-1.275c0.023-0.37,0.052-0.748,0.15-1.103c0.587-2.112,2.622-3.234,5.354-2.975
		c2.329,0.221,3.62,1.457,3.844,3.708c0.053,0.528,0.06,1.061,0.06,1.592c0.003,8.981,0.003,17.962,0.002,26.943
		c0,0.319-0.013,0.638-0.004,0.956c0.013,0.486-0.252,0.644-0.693,0.633c-0.372-0.01-0.744,0.002-1.116,0.002
		c-4.783,0-9.566,0-14.349,0C92.241,215.766,92.241,215.755,92.241,215.745z"/>
	<path fill="#FFFFFF" d="M382.04,218.369c-5.742,0.001-11.484,0.004-17.226-0.003c-1.169-0.001-2.336-0.013-3.471-0.381
		c-2.169-0.702-3.384-2.252-3.585-4.575c-0.206-2.38,0.478-4.304,2.72-5.457c1.307-0.672,2.703-0.875,4.163-0.873
		c11.271,0.015,22.543,0.008,33.814,0.007c3.292,0,5.078-1.311,5.962-4.374c0.867-3.003-0.181-6.008-2.62-7.575
		c-1.169-0.752-2.463-0.938-3.811-0.937c-2.499,0.003-4.998,0.001-7.497,0.001c-5.689,0-11.378-0.002-17.067,0.001
		c-1.709,0.001-3.393-0.181-5.04-0.654c-6.292-1.807-10.306-6.726-10.899-13.456c-0.243-2.76-0.212-5.511,0.563-8.222
		c2.003-7.007,8.845-12.227,16.142-12.233c11.697-0.01,23.393,0.001,35.09-0.008c1.016-0.001,2.02,0.085,3.012,0.274
		c2.296,0.438,3.636,1.922,3.87,4.236c0.444,4.396-1.429,6.552-5.857,6.564c-11.271,0.031-22.543,0.017-33.814,0.004
		c-1.346-0.002-2.648,0.154-3.895,0.673c-2.401,0.998-3.646,2.852-3.655,5.449c-0.002,0.691,0.043,1.372,0.207,2.055
		c0.669,2.781,2.363,4.289,5.214,4.561c0.528,0.05,1.062,0.035,1.594,0.035c7.762,0.002,15.525-0.037,23.287,0.016
		c4.53,0.031,8.534,1.599,11.91,4.629c3.178,2.853,4.608,6.562,4.94,10.732c0.208,2.615-0.039,5.201-0.802,7.725
		c-2.111,6.985-8.419,11.739-15.705,11.778C393.737,218.393,387.889,218.368,382.04,218.369z"/>
	<path fill="#FFFFFF" d="M826.074,216.348c0.021,0.608-0.512,0.759-0.881,1.002c-4.85,3.183-11.672,0.094-12.5-5.649
		c-0.591-4.102,1.456-8.018,5.093-9.3c6.67-2.351,11.244,2.956,11.232,7.409c-0.005,2.035-0.396,3.891-1.644,5.527
		c-0.355,0.466-0.716,0.913-1.333,1.037c0.302-0.499-0.173-0.761-0.368-1.07c-0.876-1.387-1.796-2.747-2.747-4.187
		c0.301-0.106,0.489-0.165,0.672-0.238c1.997-0.794,2.788-2.08,2.501-4.061c-0.214-1.479-1.394-2.431-3.326-2.648
		c-1.694-0.19-3.396-0.056-5.093-0.096c-0.63-0.015-0.818,0.281-0.816,0.871c0.014,3.505,0.03,7.01-0.011,10.514
		c-0.01,0.84,0.369,0.931,1.056,0.947c0.752,0.018,1.05-0.214,1.015-0.994c-0.051-1.166-0.013-2.336-0.006-3.504
		c0.002-0.318,0.013-0.619,0.42-0.744c0.78-0.239,1.58,0.014,2.031,0.742c0.754,1.218,1.498,2.444,2.205,3.689
		c0.321,0.566,0.701,0.895,1.388,0.798C825.328,216.342,825.703,216.361,826.074,216.348z"/>
	<path fill="#0D4785" d="M826.074,216.348c-0.371,0.013-0.746-0.006-1.112,0.045c-0.686,0.097-1.066-0.232-1.388-0.798
		c-0.707-1.246-1.451-2.471-2.205-3.689c-0.451-0.729-1.252-0.982-2.031-0.742c-0.407,0.125-0.418,0.425-0.42,0.744
		c-0.007,1.168-0.045,2.338,0.006,3.504c0.034,0.781-0.263,1.012-1.015,0.994c-0.687-0.016-1.066-0.107-1.056-0.947
		c0.041-3.504,0.025-7.009,0.011-10.514c-0.002-0.59,0.186-0.886,0.816-0.871c1.698,0.04,3.399-0.093,5.093,0.096
		c1.932,0.216,3.112,1.168,3.326,2.648c0.287,1.981-0.505,3.267-2.501,4.061c-0.183,0.073-0.372,0.132-0.672,0.238
		c0.951,1.44,1.871,2.8,2.747,4.187c0.195,0.309,0.671,0.572,0.368,1.07C826.04,216.374,826.074,216.348,826.074,216.348z
		 M820.794,209.397c0.685-0.015,1.381,0.057,2.046-0.155c0.84-0.267,1.3-0.935,1.279-1.793c-0.021-0.86-0.505-1.449-1.443-1.612
		c-0.621-0.108-1.262-0.131-1.894-0.129c-2.109,0.009-1.868-0.213-1.865,1.857C818.92,209.659,818.669,209.365,820.794,209.397z"/>
	<path fill="#FFFFFF" d="M820.794,209.396c-2.125-0.032-1.874,0.263-1.877-1.831c-0.003-2.069-0.243-1.848,1.865-1.857
		c0.632-0.003,1.274,0.021,1.894,0.129c0.938,0.163,1.422,0.752,1.443,1.612c0.021,0.858-0.439,1.526-1.279,1.793
		C822.175,209.454,821.479,209.382,820.794,209.396z"/>
</g>
</svg>
