<?xml version="1.0" encoding="utf-8"?>
<!-- Generator: Adobe Illustrator 22.1.0, SVG Export Plug-In . SVG Version: 6.00 Build 0)  -->
<svg version="1.2" baseProfile="tiny" id="Capa_1" xmlns="http://www.w3.org/2000/svg" xmlns:xlink="http://www.w3.org/1999/xlink"
	 x="0px" y="0px" width="850.394px" height="182.394px" viewBox="0 0 850.394 182.394" xml:space="preserve">
<g>
	<path fill="#494A3F" d="M720.981,161.849c0-47.129,0-93.768,0-140.87c8.221,0,16.465,0,25.098,0
		c0.233,3.727,0.463,7.403,0.69,11.045c2.993,0.625,4.456-1.493,6.266-2.645c13.435-8.547,27.827-12.83,43.977-11.716
		c20.68,1.426,34.714,15.075,34.854,35.679c0.239,35.042,0.085,70.088,0.077,105.132c0,0.974-0.218,1.948-0.371,3.232
		c-8.462,0-16.746,0-24.961,0c-1.239-2.691-0.677-5.248-0.681-7.721c-0.048-28.695-0.031-57.391-0.034-86.086
		c0-2.031,0.033-4.065-0.041-6.094c-0.592-16.251-11.217-23.538-26.834-18.443c-12.066,3.937-21.823,11.497-31.656,19.825
		c0,32.627,0,65.315,0,98.454C738.34,162.389,729.828,161.976,720.981,161.849z"/>
	<path fill="#494A3F" d="M149.819,20.704c10.375,0,19.697,0,29.677,0c9.059,15.146,18.262,30.533,28.038,46.879
		c9.651-16.11,18.912-31.571,28.017-46.77c10.128,0,19.68,0,30.288,0c-14.616,23.638-28.81,46.593-43.168,69.815
		c14.088,23.537,28.089,46.928,42.518,71.033c-10.68,0-20.454,0-30.932,0c-9.232-15.835-18.66-32.006-28.808-49.41
		c-10.338,16.871-20.293,33.117-30.319,49.48c-9.729,0-19.236,0-29.735,0c15.013-24.352,29.58-47.98,44.468-72.131
		C176.836,66.986,162.452,44.95,149.819,20.704z"/>
	<path fill="#494A3F" d="M533.177,125.128c6.909,4.637,13.208,8.864,19.986,13.413c-6.286,13.19-17.054,20.525-30.458,24.005
		c-11.689,3.035-23.695,2.915-35.391-0.26c-17.62-4.784-30.017-16.125-36.237-33.024c-10.185-27.671-9.056-55.244,4.164-81.836
		c18.08-36.369,62.716-36.054,83.904-18.641c1.954,1.606,3.849,3.326,5.532,5.208c3.038,3.397,5.676,7.108,7.992,11.51
		c-2.772,3.263-6.936,4.636-10.417,6.938c-3.347,2.213-6.879,4.148-10.017,6.018c-1.991-0.288-2.318-1.664-2.852-2.749
		c-9.044-18.367-37.942-19.185-48.67,0.4c-7.456,13.612-9.175,28.341-8.06,43.498c0.539,7.327,2.159,14.453,5.038,21.352
		c10.315,24.718,42.67,24.372,53.15,6.731C531.329,126.869,532.145,126.243,533.177,125.128z"/>
	<path fill="#E5362A" d="M309.461,20.991c-14.928,23.282-29.258,45.632-44.002,68.627c14.095,23.652,28.21,47.339,43.162,72.428
		c-10.342,0.086-19.825,0.081-29.764-0.017c-14.242-23.654-28.479-47.302-43.049-71.501c14.312-23.047,28.715-46.239,43.183-69.536
		C288.811,20.991,298.416,20.991,309.461,20.991z"/>
	<path fill="#494A3F" d="M423.108,60.069c-0.321-18.891-10.45-31.749-27.864-38.932c-10.702-4.414-21.961-4.235-33.02-3.02
		c-16.914,1.857-30.925,10.005-43.2,22.243c6.307,5.97,12.148,11.499,18.013,17.051c2.402-2.113,4.398-4.081,6.605-5.774
		c11.194-8.591,23.485-12.848,37.712-9.381c5.178,1.262,9.342,3.709,11.746,8.725c3.383,7.059,3.641,14.397,2.881,22.213
		c-9.979-0.267-19.337,0.009-28.666,1.066c-14.146,1.603-27.34,5.672-38.206,15.273c-12.937,11.432-17.528,25.978-13.702,42.618
		c3.768,16.386,13.877,27.91,30.642,31.279c15.164,3.047,30.324,2.019,44.167-6.382c2.053-1.246,3.78-3.479,6.761-3.128
		c0.256,2.553,0.505,5.038,0.779,7.765c8.532,0,16.825,0,24.99,0c0.295-0.84,0.605-1.311,0.605-1.781
		C423.335,126.626,423.674,93.339,423.108,60.069z M396.564,123.864c-6.31,6.431-13.435,11.576-21.672,15.17
		c-3.753,1.637-7.632,2.729-11.705,3.099c-9.757,0.887-17.467-3.512-20.808-11.845c-3.537-8.82-0.93-18.892,6.457-24.686
		c4.057-3.182,8.777-5.078,13.707-6.313c10.891-2.728,22.003-2.906,34.022-2.863C396.564,106.189,396.564,115.001,396.564,123.864z"
		/>
	<path fill="#494A3F" d="M135.083,65.228c-3.077-14.529-9.049-27.432-21.335-36.602C91.516,12.033,46.997,12.004,28.626,52.349
		c-11.142,24.47-11.06,49.752-2.227,74.843c6.808,19.338,20.551,32.177,40.802,36.038c19.607,3.738,38.933,2.24,56.324-9.274
		c3.985-2.638,7.695-5.53,10.887-9.462c-5.897-6.316-11.41-12.22-17.236-18.461c-15.062,13.351-31.1,20.551-49.828,10.968
		c-15.105-7.729-17.771-22.559-19.171-38.549c29.958,0,59.069,0,88.258,0C137.38,86.886,137.364,75.999,135.083,65.228z
		 M50.56,74.248c1.271-19.453,13.81-32.24,31.259-32.125c16.385,0.108,26.676,11.859,27.599,32.125
		C89.401,74.248,69.989,74.248,50.56,74.248z"/>
	<path fill="#494A3F" d="M694.753,72.7c-5.366-32.518-28.821-56.352-64.584-54.922c-25.625,1.025-43.771,12.841-54.328,36.034
		c-8.045,17.676-8.976,36.439-5.715,55.206c4.894,28.164,21.79,50.575,53.96,54.642c24.034,3.038,50.051-6.294,63.059-31.617
		c6.649-12.945,9.073-26.774,9.174-43.451C696.476,84.765,695.747,78.724,694.753,72.7z M668.221,96.517
		c-0.678,8.317-1.915,16.584-5.566,24.275c-5.997,12.632-15.701,19.315-29.917,19.373c-14.138,0.057-24.118-6.158-30.198-18.889
		c-4.59-9.611-5.794-19.827-5.767-30.296c-0.103-11.001,1.293-21.678,6.386-31.652c6.014-11.779,15.735-17.402,28.768-17.574
		c12.958-0.172,23.081,4.855,29.415,16.501C667.859,70.235,669.306,83.205,668.221,96.517z"/>
</g>
</svg>
