<?xml version="1.0" encoding="utf-8"?>
<!-- Generator: Adobe Illustrator 22.1.0, SVG Export Plug-In . SVG Version: 6.00 Build 0)  -->
<svg version="1.2" baseProfile="tiny" id="Capa_1" xmlns="http://www.w3.org/2000/svg" xmlns:xlink="http://www.w3.org/1999/xlink"
	 x="0px" y="0px" width="795.526px" height="138.849px" viewBox="0 0 795.526 138.849" xml:space="preserve">
<g>
	<g>
		<path fill="#B71830" d="M601.732,98.997c-0.179-0.074-0.487-0.129-0.872-0.129h-0.372v1.671h0.588
			c0.353,0,0.638-0.064,0.831-0.202c0.206-0.151,0.28-0.372,0.28-0.693C602.187,99.328,602.049,99.116,601.732,98.997
			 M598.996,103.601v-5.725c0.372,0,0.895,0,1.611,0.009c0.698,0,1.097,0,1.18,0.014c0.459,0.023,0.831,0.128,1.139,0.289
			c0.51,0.294,0.762,0.744,0.762,1.363c0,0.482-0.133,0.831-0.404,1.037c-0.271,0.216-0.592,0.354-1.005,0.399
			c0.377,0.069,0.647,0.184,0.822,0.317c0.344,0.28,0.523,0.703,0.523,1.299v0.501c0,0.06,0,0.115,0.009,0.174
			c0,0.055,0.018,0.096,0.027,0.165l0.073,0.156h-1.455c-0.046-0.179-0.092-0.436-0.101-0.799c-0.014-0.335-0.032-0.565-0.092-0.693
			c-0.074-0.207-0.211-0.34-0.441-0.422c-0.092-0.046-0.275-0.074-0.5-0.083l-0.34-0.018h-0.317v2.015H598.996z M598.234,97.748
			c-0.813,0.84-1.226,1.836-1.226,2.989c0,1.198,0.413,2.222,1.258,3.057c0.831,0.831,1.836,1.244,3.007,1.244
			c1.18,0,2.181-0.413,3.016-1.253c0.826-0.845,1.249-1.868,1.249-3.048c0-1.143-0.422-2.144-1.23-2.989
			c-0.854-0.863-1.855-1.295-3.034-1.295C600.093,96.454,599.06,96.885,598.234,97.748 M604.9,104.46
			c-1.006,0.969-2.208,1.455-3.631,1.455c-1.451,0-2.677-0.496-3.686-1.501c-0.992-0.992-1.483-2.208-1.483-3.677
			c0-1.51,0.519-2.754,1.602-3.76c1.019-0.937,2.204-1.409,3.567-1.409c1.437,0,2.644,0.509,3.659,1.524
			c1.019,1.005,1.524,2.222,1.524,3.645C606.451,102.21,605.932,103.459,604.9,104.46"/>
		<path fill="#B71830" d="M317.718,58.351v0.023c-0.85,1.744-1.203,4.444-1.203,5.495c0,0.28-0.037,28.256,0,30.359
			c0.032,0.707,0.041,2.869,1.519,4.269c0.992,0.95,1.423,1.391,3.287,1.336c1.73-0.014,5.734-0.734,5.734-6.955
			c0-1.308,0.188-4.935,0.463-8.259c0.312-3.53,2.768-12.96,6.478-15.641c8.158-5.169,6.716,11.128,5.605,18.748
			c-0.491,4.416-0.124,8.663,1.028,11.601c0.67,1.712,1.556,2.947,2.695,3.778c1.092,0.799,2.938,1.561,5.61,0.73
			c4.605-1.469,2.387-14.314,2.337-14.667L350.629,85c-0.427-3.875-0.542-12.602-0.542-14.732c-0.069-2.02-0.909-8.351-3.796-10.646
			c-1.588-1.295-3.292-2.043-5.101-2.236c-3.829-0.413-7.519,1.772-11.945,7.06l-1.317,1.557l0.202-3.889
			c0-2.447-0.537-4.228-1.666-5.426c-0.927-1.024-2.245-1.556-3.797-1.556C321.046,55.132,318.911,55.982,317.718,58.351"/>
		<path fill="#B71830" d="M198.471,47.166c-3.498,1.588-5.509,3.131-5.509,5.504c0,0.491,0.069,0.987,0.244,1.487
			c0.909,2.667,3.953,4.421,8.08,3.494c5.105-0.987,20.686-5.715,20.686-5.715s0.229,7.68,0.229,12.487c0,0,0.041,3.723,0.041,4.834
			c0,10.545,1.648,30.276-15.356,32.576c-7.143,0.835-13.786-1.506-22.518-9.361c-1.116-1.01-5.706-4.761-5.706-4.761
			c-2.915-2.392-5.922-2.741-7.676-0.891c-1.772,1.864-1.868,5.766,1.437,9.314c2.998,3.232,9.264,8.208,9.264,8.208
			c5.638,4.609,13.244,7.308,20.906,7.395c9.241,0.129,16.467-3.48,18.266-4.747c13.924-9.136,11.996-43.415,11.982-43.745
			c0-8.218-0.271-15.948-0.271-15.948l13.244-4.954l0.027-0.014c1.63-0.753,3.209-3.223,2.787-5.261
			c-0.34-1.758-2.217-3.48-5.119-3.337C235.789,34.138,212.491,42.034,198.471,47.166"/>
		<path fill="#B71830" d="M240.416,58.351c-0.684,1.744-0.326,3.801-0.326,5.917c0,0.996,0.312,13.414,0.51,20.732
			c0,0,0.303,5.66,0.863,7.947c0.569,2.456,1.671,4.843,3.278,7.106c1.501,2.047,4.297,2.603,6.409,1.271
			c2.635-1.579,5.036-4.044,7.176-7.221c0.776,2.392,6.638,6.601,9.893,6.84c6.252,0.496,10.536-3.108,11.339-4.554
			c2.732-2.621-3.553-7.836-3.553-7.836c-0.041-0.037-7.056,2.805-7.763-1.313c-0.326-1.928,0.014-9.898,0.147-12.886
			c0,0.018,0.468-8.35,0.468-10.393c0-2.984-3.255-10.118-8.52-1.487c-1.015,1.657-1.85,4.549-2.024,7.763
			c-0.211,4.605,0.207,18.455-6.537,17.229c-4.508-1.318-0.982-26.534-1.065-28.954C250.809,54.297,243.923,49.266,240.416,58.351"
			/>
		<path fill="#B71830" d="M286.068,89.051c-4.797-3.085,8.089-25.639,12.868-23.27C303.613,68.113,290.181,91.691,286.068,89.051
			 M308.851,85.507c-0.629-3.985-1.005-16.678-0.996-17.412c0.069-1.189,0.147-2.649,0.147-4.164c0-1.864-0.124-3.796-0.491-5.394
			c-0.487-2.341-3.181-4.141-6.386-4.224c-1.634-0.05-5.458-0.151-19.185,18.363c-1.754,2.36-5.913,10.063-6.198,11.725
			c-3.393,13.657,10.04,17.114,15.053,11.761c1.625-1.354,3.044-3.016,4.214-4.958c0.009-0.004,0.344-0.533,0.78-1.161
			c0.422,2.919,0.932,5.275,1.859,6.891c4.508,7.708,13.391-1.221,12.115-6.298C309.425,89.345,309.122,87.242,308.851,85.507"/>
		<path fill="#B71830" d="M419.632,92.394c-4.802-3.076,8.08-25.639,12.872-23.266C437.169,71.455,423.732,95.033,419.632,92.394
			 M442.411,88.859c-0.629-4.012-1.015-16.683-0.987-17.417c0.06-1.185,0.11-2.653,0.11-4.168c0-1.859-0.083-3.797-0.464-5.394
			c-0.473-2.346-3.172-4.141-6.381-4.228c-1.63-0.037-5.435-0.151-19.189,18.377c-1.758,2.35-5.917,10.04-6.179,11.706
			c-3.42,13.662,10.044,17.11,15.049,11.775c1.602-1.359,3.021-3.025,4.214-4.958c0-0.004,0.34-0.528,0.771-1.161
			c0.427,2.929,0.918,5.27,1.855,6.881c4.503,7.708,13.396-1.23,12.087-6.294C442.981,92.683,442.682,90.571,442.411,88.859"/>
		<path fill="#B71830" d="M581.99,60.335c-0.009,0.009-7.18,2.236-7.18,2.236c-7.088,1.969-25.905,7.354-27.879,8.644
			c-2.396,1.579-3.668,3.42-3.668,5.266c0,0.61,0.133,1.221,0.404,1.822c1.125,2.392,4.288,3.925,6.616,3.236
			c1.46-0.436,5.995-2.13,9.994-3.631c3.264-1.198,6.33-2.355,7.685-2.819c0.014,0,3.797-1.226,3.797-1.226l4.085-1.68
			c-4.811,3.879-11.321,9.232-12.078,9.907c-1.611,1.414-6.863,5.215-11.913,8.878c-9.314,6.762-12.533,9.163-13.258,10.09
			c-0.996,1.304-1.552,2.814-1.552,4.274c0,1.515,0.588,2.892,1.717,3.99c1.717,1.62,4.829,3.108,10.104,0.858
			c15.503-6.629,39.549-15.342,46.848-17.266c9.14-2.396,9.691-3.016,11.064-5.904c0.583-1.226,0.597-2.603,0.028-3.865
			c-2.383-5.146-5.729-3.953-18.161,1.46c-5.821,2.529-22.665,9.227-28.196,10.972l2.658-2.24c0.959-0.845,4.949-4.012,9.649-7.35
			c3.526-2.506,6.854-4.875,7.965-5.715c7.694-5.959,13.772-10.664,13.772-14.975c0-0.661-0.142-1.294-0.422-1.887
			C591.851,58.577,587.811,58.65,581.99,60.335"/>
		<path fill="#B71830" d="M413.526,39.054c-3.604,0-6.115,7.869-6.115,7.869c-1.092,3.438-17.541,50.861-17.541,50.861
			s-10.756-35.312-12.758-43.208c-2.107-8.249-3.315-12.666-6.611-14.401c-1.501-0.799-2.704-0.757-4.421-0.262
			c-1.497,0.427-2.548,1.258-3.172,2.557c-2.566,5.174,1.575,16.706,6.459,29.073c0.11,0.28,13.644,34.509,13.786,34.849
			c1.409,3.503,3.553,5.334,6.243,5.334c3.094-0.009,6.165-2.511,7.083-4.834c0,0,18.078-54.139,21.333-59.643
			c1.166-2.433,1.074-4.931-0.262-6.634C416.561,39.353,415.059,38.761,413.526,39.054"/>
		<path fill="#B71830" d="M514.353,79.781c-3.315-2.199,11.573-19.772,15.08-17.197C532.844,65.082,516.565,81.251,514.353,79.781
			 M529.02,89.353c-0.739-0.074-10.256-0.909-11.574-1.028c17.413-7.005,33.37-31.217,12.873-34.931
			c-3.645-0.519-8.608,1.221-13.208,4.77c-3.714,2.865-14.998,14.273-13.4,26.048c1.345,10.054,6.353,16.136,21.081,16.664
			c3.989,0,8.557,0.184,10.536-1.818c0.941-0.973,1.469-2.305,1.4-3.654C536.301,91.052,532.215,89.679,529.02,89.353"/>
		<path fill="#B71830" d="M460.088,93.487c0.128-11.353-0.96-36.909-0.606-45.411c0-5.238-0.569-7.345-3.806-7.735
			c-1.634-0.202-3.112,0.22-4.255,1.194c-2.741,2.332-2.851,5.683-2.952,9.572c0,0.083-0.078,6.22-0.078,14.406v28.77
			c0,3.342,0.624,5.872,1.547,7.901c1.46,3.205,6.657,5.357,8.989,0.487C460.345,99.712,460.06,95.787,460.088,93.487"/>
		<path fill="#B71830" d="M485.691,82.895c-3.526,6.863-11.684,15.723-14.057,13.474c-2.598-2.442,2.649-11.041,8.112-16.256
			c1.171-1.157,2.286-2.07,3.273-2.594c1.469-0.895,2.727-1.203,3.53-0.601c0.78,0.587,0.67,1.859,0.193,3.549
			C486.535,81.202,486.2,82.028,485.691,82.895 M501.703,96.911c-1.24-5.491-4.485-16.674-2.497-41.854
			c0.34-7.203,0.317-7.304,0.239-9.907c-0.147-5.316-2.222-9.113-7.763-5.715c-3.122,1.91-2.125,8.869-2.125,12.367
			c-0.023,0.969,0.344,9.2,0.262,9.911c-0.317,2.084-1.359,2.966-3.14,4.045c-19.575,11.84-24.689,24.749-24.689,32.268
			c0,1.005,0.17,2.011,0.422,2.989c1.148,4.43,4.719,6.505,7.561,6.45c7.46-0.142,14.227-10.196,16.674-13.593
			c1.29-1.813,2.993-5.224,2.993-5.224s0.886,14.603,4.641,17.201c0.197,0.115,0.918,0.5,1.074,0.592
			c1.281,0.638,2.814,0.565,4.283-0.216c2.626-1.441,2.791-2.86,2.791-5.633C502.428,100.115,502.103,98.697,501.703,96.911"/>
		<path fill="#B71830" d="M687.424,77.508c-0.629-3.994-1.005-16.669-0.992-17.403c0.064-1.189,0.138-2.649,0.138-4.168
			c0-1.85-0.11-3.788-0.482-5.385c-0.482-2.346-3.158-4.141-6.358-4.232c-1.63-0.041-5.417-0.142-19.107,18.363h-0.004
			c-1.74,2.364-5.881,10.044-6.147,11.711c-3.402,13.648,9.989,17.1,14.979,11.762c1.607-1.363,3.016-3.021,4.201-4.954
			c0.005-0.014,0.344-0.523,0.767-1.17c0.427,2.924,0.923,5.266,1.855,6.886c4.485,7.712,13.341-1.226,12.051-6.289
			C687.989,81.332,687.695,79.229,687.424,77.508 M664.737,81.043c-4.774-3.085,8.057-25.63,12.813-23.252
			C682.205,60.118,668.827,83.682,664.737,81.043"/>
		<path fill="#B71830" d="M718.298,48.16c4.857,3.494,7.905-5.784,3.397-8.846c-5.302-3.604-11.876-4.985-17.114-2.837
			c-5.252,2.162-9.163,7.864-9.117,18.441l-0.064,16.655c-3.645,1.203-6.969,1.923-8.011,2.548c-8.08,4.898-0.84,10.683,3.337,9.879
			c1.281-0.143,2.924-0.946,4.398-1.309l0.037,13.671c0.744,24.345,13.873,12.983,12.455,6.859
			c-0.11-0.505-1.956-11.826-2.947-23.064c0.606-0.225,11.807-3.985,11.807-3.985c2.506-0.955,6.675-4.894,4.049-9.324
			c-1.088-1.85-2.773-1.717-4.871-1.317c-0.978,0.184-5.628,1.644-10.494,3.089c-0.262-3.989-0.285-7.868-0.216-9.585
			C705.554,45.259,708.827,41.352,718.298,48.16"/>
		<path fill="#B71830" d="M618.672,79.205c0.243,9.691,4.164,19.86,13.992,26.328c0,0,23.339,13.469,40.201,0.73
			c4.37-5.522,0.831-12.67-3.067-10.127c-7.019,4.577-22.348,6.781-30.129,0.941c-7.097-5.325-12.9-12.349-8.227-30.634
			c3.668-14.346,12.799-20.645,27.255-19.864c6.409,1.185,7.997,0.785,8.374-2.204c-0.06-5.899-7.85-7.579-10.435-7.579
			C654.053,36.796,618.502,35.171,618.672,79.205"/>
		<path fill="#B71830" d="M736.251,46.962c-1.249,1.377-1.813,8.346,4.637,5.945c2.19-0.813,7.336-6.147,9.273-8.677
			c1.937-2.534-0.872-8.139-5.197-5.367C740.635,41.632,737.504,45.576,736.251,46.962"/>
		<path fill="#B71830" d="M746.026,93.694c-0.734-0.083-10.205-0.914-11.518-1.028c17.33-7.001,33.209-31.194,12.813-34.908
			c-3.65-0.519-8.562,1.23-13.162,4.77c-3.695,2.86-14.929,14.273-13.341,26.025c1.354,10.044,6.34,16.123,21.003,16.651
			c3.962,0,8.511,0.188,10.485-1.813c0.945-0.969,1.451-2.295,1.395-3.654C753.271,95.392,749.212,94.02,746.026,93.694
			 M731.414,84.127c-3.292-2.199,11.518-19.754,15.021-17.183C749.832,69.436,733.622,85.605,731.414,84.127"/>
		<path fill="none" d="M400.467,0h-10.558c0.104,10.946-0.255,26.861-15.407,28.916c-7.155,0.84-13.802-1.513-22.544-9.405
			c-1.116-1.012-5.715-4.779-5.715-4.779c-2.921-2.404-5.93-2.753-7.687-0.894c-1.771,1.87-1.868,5.788,1.442,9.353
			c3.001,3.247,9.276,8.249,9.276,8.249c4.748,3.896,10.899,6.411,17.301,7.17h8.135c7.025-0.808,12.287-3.453,13.781-4.508
			C397.692,28.047,399.979,10.997,400.467,0z"/>
		<path fill="none" d="M0,48.099v10.558c10.946-0.104,26.861,0.256,28.916,15.407c0.84,7.155-1.513,13.802-9.405,22.544
			c-1.012,1.116-4.779,5.715-4.779,5.715c-2.404,2.921-2.753,5.93-0.894,7.687c1.871,1.771,5.788,1.869,9.353-1.442
			c3.247-3.001,8.249-9.276,8.249-9.276c3.896-4.748,6.411-10.899,7.17-17.301v-8.135c-0.808-7.025-3.453-12.287-4.508-13.781
			C28.047,50.875,10.997,48.588,0,48.099z"/>
		<path fill="none" d="M795.526,97.172V86.614c-10.946,0.104-26.861-0.256-28.916-15.407c-0.84-7.155,1.513-13.802,9.405-22.544
			c1.012-1.116,4.779-5.715,4.779-5.715c2.404-2.921,2.754-5.93,0.894-7.687c-1.871-1.771-5.789-1.869-9.353,1.442
			c-3.247,3.001-8.249,9.276-8.249,9.276c-3.896,4.748-6.411,10.899-7.17,17.301v8.135c0.808,7.025,3.453,12.287,4.508,13.781
			C767.479,94.396,784.529,96.683,795.526,97.172z"/>
		<path fill="none" d="M417.799,130.508c0-8.285-0.275-16.079-0.275-16.079l13.309-4.994l0.027-0.014
			c1.637-0.762,3.224-3.252,2.804-5.303c-0.343-1.776-2.231-3.509-5.147-3.366c-7.757,0.405-31.168,8.369-45.258,13.542
			c-3.514,1.603-5.536,3.157-5.536,5.549c0,0.495,0.07,0.995,0.244,1.499c0.916,2.693,3.972,4.457,8.121,3.524
			c5.127-0.995,20.786-5.76,20.786-5.76s0.231,7.74,0.231,12.589c0,0,0.042,3.753,0.042,4.875c0,0.719,0.007,1.486,0.016,2.281
			h10.671C417.988,133.978,417.802,130.611,417.799,130.508z"/>
	</g>
	<g>
		<g>
			<path fill="#B71830" d="M141.95,15.747H48.451c-5.433,0-9.84,4.413-9.84,9.846v92.465c0,5.427,4.407,9.835,9.84,9.835h93.499
				c5.428,0,9.841-4.408,9.841-9.835V25.593C151.79,20.161,147.377,15.747,141.95,15.747 M73.61,23.26
				c-3.082,6.329-12.173,10.941-14.95,0H73.61z M46.129,50.773c4.065-3.52,1.344-4.937,1.102-8.878
				c-0.254-4.041-1.096-8.27-1.062-11.856c0.017-1.357,0.075-2.87,0.161-4.43c0.467-1.357,1.752-2.348,3.267-2.348h5.162
				c0.127,0.429,0.248,0.824,0.369,1.155c3.906,11.021,1.533,7.645-0.749,10.028c-0.456,0.472-3.451,6.118-2.881,6.939
				c0.622,0.067,2.085-0.23,2.685-0.389c-0.461,1.576-2.12,4.099-0.801,5.05c1.913,1.385,9.662-4.318,10.716-4.744
				c5.801-3.068,6.407-5.462,9.921-11.514c1.267-2.319,2.172-4.474,3.031-6.525h3.053c-1.814,5.508-1.647,10.117-0.346,16.918
				c1.619,8.484,9.051,13.309,4.609,22.944c-3.716,7.656-7.709,17.154-12.456,24.281c-6.562,9.558-4.431-0.594-9.368-3.834
				c-3.221-2.112-11.92-3.293-15.861-2.034c-0.196,0.052-0.363,0.118-0.553,0.17V50.773z M56.401,120.395
				c2.103-2.131,3.854-5.422,1.198-5.747c-2.61,1.475-4.056,4.26-5.698,4.655c-0.893,0.614-2.097,0.844-3.365,0.89
				c-1.394-0.449-2.408-1.74-2.408-3.272V85.398c6.343-1.941,13.332,0.207,16.281,5.828c1.412,2.679,2.189,6.219,2.08,11.787
				c-0.109,4.891-1.157,13.015-4.079,17.382H56.401z M90.018,120.395H63.706c2.161-3.304,3.555-7.582,3.774-12.698
				c0.352-7.999,8.526-3.756,15.072-14.61c0.807-1.322,4.977-12.79,1.976-11.223c-3.721,1.959-3.485,13.47-13.631,15.175
				c-3.192,0.536,8.239-13.888,10.145-17.215c3.238-5.824,6.268-15.523,8.17-21.734c1.457-4.964,10.526,10.494,10.491,10.476
				c1.031,0.608,8.74,15.858,8.354,17.057c-2.552,7.915-3.952,3.664-7.161,2.973c-3.883-0.81-11.073,9.722-8.861,11.004
				c3.773,2.181,3.008-3.681,6.481-5.032c10.134-3.912-2.99,9.963-5.121,16.111C92.968,111.9,91.176,116.313,90.018,120.395
				 M144.266,112.853c0,2.394,0.106,5.145-0.577,6.015c-0.535,0.681-1.301,1.525-2.805,1.525l-2.885,0.001
				c1.452-6.551,4.078-13.542,6.268-18.984V112.853z M144.266,92.373c-1.74,3.238-4.186,7.183-5.785,11.627
				c-1.993,5.536-4.125,9.764-5.116,16.395h-5.02c0.392-2.495,1.095-4.926,1.694-7.374c1.256-5.202,3.428-9.4,5.704-14.196
				c1.74-3.664,5.816-9.098,8.524-13.226V92.373z M144.266,69.646c-0.34-0.135-0.691-0.265-1.031-0.412
				c-11.787-5.465-3.278-9.175,1.031-11.494V69.646z M144.266,52.608c-2.748,3.039-6.994,5.47-14.046,7.008
				c-1.032,2.06-9.714,10.639-7.663,12.232c0.887,0.688,5.882-4.249,9.506-5.347c1.59-0.47,2.011,1.005,3.301,2.112
				c1.325,1.158,2.76,2.267,1.901,3.494c-2.011,2.832-4.932,6.565-3.082,7.87c1.665,1.187,5.249-5.32,6.827-6.276
				c0.823-0.508,2.034-0.698,3.255-0.721v6.418c-3.468,4.206-8.353,8.961-11.268,14.247c-4.396,7.959-7.876,17.198-9.449,26.75
				H95.261c0.841-2.939,1.504-5.894,2.114-7.245c3.14-7.464,7.167-14.412,11.926-21.02c1.705-2.42,8.4-15.244,12.312-12.531
				c1.924,1.261,7.587,11.367,9.627,10.278c2.696-1.446-4.177-11.246-6.983-14.061c-3.267-3.269-6.182-4.413-9.31,0.153
				c-0.438,0.608-4.108,5.482-4.592,4.195c-0.49-3.514-3.664-9.697,1.959-9.296c2.454,0.176,6.85-1.83,5.974-3.405
				c-0.852-1.532-7.72,1.93-9.287-0.429c-4.788-7.159-10.411-9.293-16.034-12.355c-3.399-1.852-5.168-7.239-6.643-9.379
				c-2.431-3.523-6.147-14.968-2.506-22.04h56.979c1.913,0,3.468,1.556,3.468,3.474V52.608z M117.182,25.677
				c3.146-0.083,4.442,0.562,4.621,0.029c0.443-1.29-1.631-1.875-2.656-1.821C117.211,23.902,116.52,25.694,117.182,25.677
				 M125.513,27.04c-1.585,3.309,3.226,1.31,1.533,7.97c-0.472,1.87,2.195,3.269,2.431,5.681c0.357,3.765-2.293,9.383-0.553,9.501
				c2.72,0.17,3.393-7.977,4.828-6.957c4.217,3.057-3.06,8.178-1.729,9.44c2.103,3.514,9.189-11.482,7.018-16.005
				C136.828,32.06,132.023,24.044,125.513,27.04 M119.585,49.01c-2.898,0.242-6.781,0.784-9.598,0.59
				c-7.086-0.49-5.468,8.726-4.949,7.475c1.55-3.788,5.306-4.58,8.48-3.433c-0.617-0.225,2.91-0.899,5.496,0.034
				c1.867,0.677,2.875,3.056,3.197,2.82C122.995,55.906,122.097,48.808,119.585,49.01 M113.852,55.725
				c-2.425,0.253-2.131,2.33,0.709,1.757C116.105,57.157,116.814,55.416,113.852,55.725 M110.085,39.553
				c0.939-1.239-1.164-2.567-2.714-2.766c-1.791-0.23-3.203,0.754-4.039,0.761c-6.078,0.058-0.754-7.418,1.078-8.996
				c2.615-2.267,6.343-0.42,9.425-3.258c0.651-0.608-0.063-1.434-1.089-1.498c-3.278-0.159-3.048,2.414-9.166,2.028
				c-4.759,0.386-7.858,2.909-10.272,7.896c-2.489,5.162,0.34,8.299,1.925,11.834c1.273,2.843,1.93,8.754,4.672,7.769
				c3.25-1.167,0.011-2.207-0.743-4.583c-0.887-2.768,0.3-6.98,1.492-8.271C102.9,37.959,105.827,45.141,110.085,39.553
				 M121.474,35.252c-2.708-1.173-4.252-0.553-5.283,0.686c-0.351,1.143-2.316,3.793,1.763,3.44c3.745,2.44,3.682-0.899,6.793-0.015
				c1.106-0.884-2.719-1.91-2.673-2.111c0.415-1.261,3.549,0.51,3.537-0.619C125.588,35.6,123.963,35.093,121.474,35.252
				 M77.246,53.63c-3.52,0-6.839,3.273-6.038,5.416C73.599,65.452,83.462,53.486,77.246,53.63 M52.109,102.365
				c-2.442,0.208-5.531,11.085,0.68,7.305C54.736,108.484,55.808,102.028,52.109,102.365"/>
		</g>
	</g>
</g>
</svg>
