<?xml version="1.0" encoding="utf-8"?>
<!-- Generator: Adobe Illustrator 22.1.0, SVG Export Plug-In . SVG Version: 6.00 Build 0)  -->
<svg version="1.2" baseProfile="tiny" id="Layer_1" xmlns="http://www.w3.org/2000/svg" xmlns:xlink="http://www.w3.org/1999/xlink"
	 x="0px" y="0px" width="213px" height="38.909px" viewBox="0 0 213 38.909" xml:space="preserve">
<title>Group 6</title>
<desc>Created with Sketch.</desc>
<g id="Welcome">
	<path id="Fill-2_1_" fill="#003D7E" d="M194.322,33.601h2.16l-0.432-3.132L194.322,33.601z M189.355,38.137l6.695-10.259h1.512
		l2.052,10.259h-2.16l-0.54-2.7h-3.672l-1.728,2.7H189.355z M182.227,38.137l2.376-10.259h1.944l-2.376,10.259H182.227z
		 M173.048,32.737h1.08c0.54,0,1.188-0.108,1.62-0.432c0.324-0.324,0.648-0.648,0.756-1.08c0.108-0.432,0-0.864-0.324-1.188
		c-0.324-0.324-0.756-0.324-1.404-0.324h-1.08L173.048,32.737z M169.916,38.137l2.376-10.259h3.024c0.972,0,1.836,0.108,2.484,0.756
		c0.648,0.648,0.864,1.62,0.648,2.484c-0.216,0.756-0.756,1.728-1.404,2.268c-0.648,0.54-1.296,0.864-2.052,0.972l1.944,3.78h-2.376
		l-1.836-3.888l-0.864,3.888H169.916z M159.657,33.601h2.268l-0.432-3.132L159.657,33.601z M154.581,38.137l6.695-10.259h1.512
		l2.052,10.259h-2.16l-0.54-2.7h-3.672l-1.728,2.7H154.581z M147.454,38.137l2.376-10.259h1.944l-2.376,10.259H147.454z
		 M137.195,38.137l2.376-10.259h1.944l-1.944,8.423h3.132l-0.432,1.836H137.195z M129.203,38.137l2.376-10.259h1.944l-2.376,10.259
		H129.203z M120.348,31.765h0.324c0.432,0,0.972,0,1.296-0.108c0.432-0.216,0.756-0.54,0.756-0.972
		c0.108-0.432-0.108-0.756-0.432-0.864c-0.324-0.216-0.864-0.108-1.188-0.108h-0.324L120.348,31.765z M119.268,36.301h0.756
		c0.54,0,1.08,0,1.62-0.324c0.432-0.216,0.648-0.54,0.756-0.972c0.108-0.54,0-0.756-0.432-1.08
		c-0.432-0.216-0.864-0.216-1.296-0.216h-0.864L119.268,36.301z M117,38.137l2.376-10.259h1.836c0.972,0,1.944,0,2.7,0.432
		c0.756,0.432,1.188,1.296,0.972,2.268c-0.216,0.756-0.756,1.62-1.62,1.944c1.08,0.324,1.512,1.296,1.188,2.484
		c-0.216,0.972-0.864,1.836-1.836,2.484c-0.972,0.54-2.052,0.648-3.024,0.648C119.592,38.137,117,38.137,117,38.137z
		 M110.629,33.061c0.432-1.944-0.756-3.564-2.7-3.564s-3.78,1.62-4.32,3.564c-0.432,1.836,0.756,3.456,2.7,3.456
		C108.253,36.517,110.197,34.897,110.629,33.061L110.629,33.061z M108.361,27.662c3.024,0,4.86,2.376,4.212,5.4
		c-0.648,2.916-3.672,5.292-6.587,5.292c-2.916,0-4.86-2.376-4.212-5.292C102.421,30.038,105.337,27.662,108.361,27.662
		L108.361,27.662z M84.387,38.137l2.376-10.259h2.592l0.972,7.883l4.644-7.883h2.592l-2.376,10.259h-1.944l1.728-7.667l-4.428,7.667
		h-1.62l-0.972-7.667l-1.728,7.667H84.387z M69.916,38.137l2.376-10.259h2.16l2.592,7.559l1.728-7.559h1.944l-2.376,10.259h-2.16
		l-2.592-7.451l-1.728,7.451H69.916z M61.925,38.137L64.3,27.878h1.944l-2.376,10.259H61.925z M197.346,0.664
		c6.048,0,9.827,5.4,8.423,12.311c-1.404,6.803-7.451,12.203-13.499,12.203s-9.827-5.4-8.423-12.203
		C185.251,6.063,191.299,0.664,197.346,0.664L197.346,0.664z M201.558,12.111c1.08-4.968-1.62-7.235-4.212-7.235
		c-3.564,0-8.207,3.672-9.287,8.963c-0.972,4.86,1.62,7.127,4.212,7.127C195.834,20.966,200.478,17.295,201.558,12.111
		L201.558,12.111z M174.776,18.158h5.292c-2.484,4.32-7.127,7.019-11.123,7.019c-6.048,0-9.719-5.616-8.315-12.311
		c1.404-6.695,7.451-12.203,13.283-12.203c4.212,0,7.775,2.7,8.423,7.127h-4.428c-0.54-1.836-2.052-2.916-4.104-2.916
		c-3.348,0-7.991,3.672-9.071,8.855c-1.08,4.968,1.62,7.235,4.104,7.235C170.672,20.966,172.94,19.994,174.776,18.158
		L174.776,18.158z M145.726,24.638l5.508-23.542h4.428l-4.536,19.331h7.235l-0.972,4.212H145.726z M130.067,14.271h5.076
		l-0.864-7.127L130.067,14.271z M118.62,24.638l15.335-23.542h3.456l4.428,23.542h-4.86l-1.188-6.048h-8.423l-3.996,6.048H118.62z
		 M102.097,17.943h4.536c-0.432,1.836,0.864,2.916,2.592,2.916c1.62,0,3.348-1.296,3.78-2.916c0.648-2.592-1.404-3.348-3.24-3.996
		c-1.404-0.54-2.7-0.972-3.564-2.16s-1.188-2.916-0.756-4.536c0.864-3.888,4.752-6.695,8.531-6.695c3.672,0,6.264,3.024,5.4,6.695
		h-4.536c0.324-1.512-0.756-2.484-2.052-2.484c-1.404,0-2.592,1.08-2.916,2.484c-0.432,1.728,0.972,2.376,2.268,2.808
		c1.512,0.54,3.024,1.08,4.104,2.16c1.404,1.296,1.836,3.024,1.296,5.4c-0.972,4.212-5.184,7.451-9.395,7.451
		C104.041,25.178,101.126,22.046,102.097,17.943L102.097,17.943z M84.603,24.638L90.11,1.096h12.743l-0.972,4.212h-8.315l-1.296,5.4
		h7.991l-0.972,4.212h-7.991l-1.296,5.4h8.315l-0.972,4.32H84.603z M72.94,10.059h0.864c0.972,0,2.16,0,3.024-0.324
		c0.864-0.432,1.62-1.296,1.836-2.16c0.216-0.972-0.216-1.728-0.972-2.052c-0.756-0.432-1.944-0.216-2.808-0.216h-0.756
		L72.94,10.059z M70.564,20.318H72.4c1.296,0,2.484-0.108,3.78-0.864c0.972-0.54,1.512-1.296,1.728-2.268
		c0.216-1.188-0.108-1.836-0.972-2.376s-1.944-0.432-3.024-0.432h-1.944L70.564,20.318z M65.164,24.638l5.508-23.542h4.32
		c2.16,0,4.32-0.108,6.048,0.864s2.592,3.132,2.052,5.292c-0.432,1.836-1.728,3.672-3.672,4.536c2.376,0.864,3.348,3.024,2.7,5.724
		c-0.54,2.268-2.052,4.212-4.212,5.616c-2.16,1.404-4.644,1.512-6.911,1.512H65.164z"/>
	<path id="Fill-4_1_" fill="#003D7E" d="M46.914,13.515c-0.648,0-1.188,0.54-1.188,1.188s0.54,1.188,1.188,1.188
		c4.644,0,8.423,3.78,8.423,8.423s-3.78,8.423-8.423,8.423H33.307l0.756-3.24h12.851c2.916,0,5.292-2.376,5.292-5.184
		c0-2.916-2.376-5.184-5.292-5.184c-2.376,0-4.428-1.944-4.428-4.32s1.944-4.32,4.428-4.32h11.879l-0.756,3.24H46.914V13.515z
		 M46.914,6.279h12.851l-0.756,3.24H46.914c-2.916,0-5.292,2.376-5.292,5.184c0,2.916,2.376,5.184,5.292,5.184
		c2.376,0,4.428,1.944,4.428,4.32s-1.944,4.32-4.428,4.32H34.279l0.756-3.24h11.879c0.648,0,1.188-0.54,1.188-1.188
		s-0.54-1.188-1.188-1.188c-4.644,0-8.423-3.78-8.423-8.423C38.49,10.059,42.27,6.279,46.914,6.279L46.914,6.279z M27.799,19.886
		c0.756-0.108,1.404-0.324,1.944-0.648c1.62-0.864,2.7-2.592,2.7-4.536c0-2.916-2.376-5.184-5.292-5.184H16.784l0.756-3.24h9.611
		c4.644,0,8.423,3.78,8.423,8.423c0,2.484-1.08,4.752-2.916,6.372c0.432,0.972,0.648,2.052,0.648,3.24
		c0,4.644-3.78,8.423-8.423,8.423H11.492l0.756-3.24h12.743c2.916,0,5.292-2.376,5.292-5.184
		C30.175,22.478,29.311,20.858,27.799,19.886L27.799,19.886z M9.98,23.126c-0.216,0-0.432,0.108-0.432,0.324l-1.62,6.695
		c-0.108,0.432-0.108,0.756-0.108,1.188c0,2.808,2.268,5.184,5.184,5.184h38.445c3.132,0,5.832-2.268,6.48-5.184l5.292-22.57
		c0.108-0.432,0.108-0.756,0.108-1.188c0-2.808-2.268-5.184-5.184-5.184H19.7c-3.132,0-5.832,2.268-6.48,5.184l-1.728,7.667
		c0,0.324,0.216,0.54,0.432,0.54h15.227c0.648,0,1.188-0.54,1.188-1.188s-0.54-1.188-1.188-1.188H15.92l0.756-3.24h10.475
		c2.376,0,4.428,1.944,4.428,4.32s-1.944,4.32-4.428,4.32H10.736c-0.756,0-1.296-0.54-1.296-1.296c0-0.108,0-0.216,0-0.324
		l0.216-0.864l2.16-9.287C12.68,3.688,15.92,0.988,19.7,0.988h38.445c3.672,0,6.695,2.916,6.695,6.587
		c0,0.54-0.108,1.08-0.216,1.512l-5.184,22.57c-0.864,3.564-4.104,6.264-7.883,6.264H13.004c-3.672,0-6.695-2.916-6.695-6.587
		c0-0.54,0.108-1.08,0.216-1.512l2.052-8.315c0.216-0.864,0.972-1.62,1.944-1.62h14.471c2.376,0,4.428,1.944,4.428,4.32
		s-1.944,4.32-4.428,4.32H12.464l0.756-3.24h11.771c0.648,0,1.188-0.54,1.188-1.188s-0.54-1.188-1.188-1.188H9.98V23.126z"/>
</g>
</svg>
