<?xml version="1.0" encoding="utf-8"?>
<!-- Generator: Adobe Illustrator 22.1.0, SVG Export Plug-In . SVG Version: 6.00 Build 0)  -->
<svg version="1.2" baseProfile="tiny" id="Capa_1" xmlns="http://www.w3.org/2000/svg" xmlns:xlink="http://www.w3.org/1999/xlink"
	 x="0px" y="0px" width="850.394px" height="221.606px" viewBox="0 0 850.394 221.606" xml:space="preserve">
<g>
	<path fill="#0461A1" d="M100.628,102.035c0.22-1.404,0.5-2.802,0.65-4.213c1.526-14.328,5.323-27.921,13.507-39.96
		c9.613-14.142,22.89-23.099,39.511-27.063c7.971-1.901,16.075-2.687,24.26-2.308c12.281,0.57,24.035,3.284,34.808,9.385
		c12.655,7.167,21.74,17.629,27.669,30.853c3.519,7.848,5.584,16.093,6.543,24.64c0.899,8.015,1.062,16.041,0.66,24.087
		c-0.141,2.831-2.267,5.243-5.212,5.836c-0.82,0.165-1.673,0.23-2.511,0.23c-28.641,0.011-57.282-0.005-85.923,0.028
		c-3.532,0.004-7.063,0.281-10.596,0.382c-0.971,0.028-1.161,0.498-1.241,1.356c-0.723,7.77,1.495,14.687,6.174,20.812
		c4.497,5.886,10.512,9.631,17.646,11.415c11.005,2.752,21.94,2.367,32.676-1.425c3.57-1.261,6.776-3.256,9.868-5.423
		c1.934-1.355,3.867-2.711,5.8-4.068c0.989-0.694,2.061-1.226,3.29-1.066c0.632,0.082,1.37,0.289,1.817,0.703
		c6.398,5.924,12.725,11.924,19.135,17.834c2.497,2.302,1.84,4.176,0.061,6.07c-0.574,0.611-1.222,1.169-1.899,1.665
		c-11.29,8.268-23.471,14.79-37.042,18.435c-4.269,1.147-8.681,1.765-13.024,2.637c-0.296,0.059-0.572,0.22-0.858,0.334
		c-5.741,0-11.481,0-17.222,0c-1.303-0.208-2.6-0.479-3.911-0.612c-7.866-0.799-15.499-2.585-22.837-5.523
		c-13.651-5.466-24.191-14.523-31.258-27.478c-5.879-10.777-8.69-22.447-9.868-34.576c-0.187-1.924-0.449-3.842-0.676-5.762
		C100.628,113.516,100.628,107.775,100.628,102.035z M174.585,95.838c10.185,0,20.369,0.002,30.554-0.002
		c1.58-0.001,1.685-0.027,1.45-1.568c-0.491-3.216-0.9-6.465-1.709-9.607c-1.699-6.6-5.016-12.274-10.572-16.399
		c-7.161-5.317-15.27-7.222-24.048-6.089c-12.617,1.627-21.37,8.235-25.579,20.429c-1.345,3.896-2.046,7.928-2.24,12.052
		c-0.041,0.865,0.147,1.302,1.086,1.19c0.333-0.039,0.674-0.006,1.012-0.006C154.554,95.838,164.57,95.838,174.585,95.838z"/>
	<path fill="#0461A1" d="M479.857,113.357c0-15.023-0.001-30.046,0.001-45.069c0-2.585,1.34-4.028,3.889-4.05
		c5.457-0.045,10.915-0.078,16.372-0.01c1.202,0.015,2.414,0.415,3.593,0.742c0.966,0.268,1.465,0.93,1.359,2.022
		c-0.07,0.722-0.019,1.465,0.063,2.189c0.069,0.607,0.182,1.232,0.413,1.791c0.567,1.372,0.835,1.427,2.004,0.551
		c5.672-4.252,11.929-7.243,18.993-8.136c12.824-1.62,27.348,2.802,34.803,16.176c2.195,3.938,3.508,8.177,3.886,12.626
		c0.399,4.698,0.577,9.427,0.595,14.143c0.067,17.048,0.026,34.097,0.027,51.145c0,0.281,0.039,0.566,0.008,0.843
		c-0.268,2.38-0.842,4.053-4.07,4.028c-4.725-0.036-9.451,0.019-14.177,0.019c-1.462,0-2.927-0.007-4.385-0.097
		c-2.429-0.15-3.293-1.085-3.299-3.502c-0.017-6.864-0.023-13.729-0.029-20.593c-0.008-10.803,0.021-21.606-0.035-32.408
		c-0.019-3.72-0.477-7.393-1.911-10.887c-2.333-5.683-6.555-8.77-12.646-9.453c-3.258-0.366-6.4,0.002-9.439,1.153
		c-7.11,2.693-9.689,8.91-10.004,14.332c-0.095,1.626-0.032,3.262-0.032,4.894c-0.002,17.386,0.003,34.772-0.02,52.158
		c-0.001,0.825-0.123,1.699-0.416,2.464c-0.426,1.113-1.255,1.813-2.572,1.816c-6.581,0.015-13.161,0.088-19.742,0.072
		c-1.931-0.005-3.078-1.291-3.227-3.385c-0.059-0.84-0.007-1.687-0.006-2.531c0-14.348,0-28.695,0-43.043
		C479.853,113.357,479.855,113.357,479.857,113.357z"/>
	<path fill="#0461A1" d="M436.513,120.958c-9.283,0-18.567-0.005-27.85,0.003c-3.537,0.003-3.945,0.559-3.559,4.091
		c0.996,9.124,7.371,15.442,16.677,17.15c4.988,0.915,9.982,0.558,14.917-0.435c2.841-0.571,5.344-2.014,7.765-3.572
		c1.937-1.247,3.888-2.474,5.816-3.734c0.535-0.35,0.94-0.44,1.471,0.06c4.054,3.814,8.165,7.568,12.186,11.416
		c1.307,1.251,1.266,1.886,0.066,3.286c-0.65,0.758-1.439,1.431-2.261,2.004c-7.724,5.382-16.032,9.461-25.326,11.365
		c-5.398,1.106-10.822,1.11-16.281,0.67c-5.074-0.408-9.994-1.476-14.737-3.311c-11.196-4.332-18.526-12.362-22.475-23.605
		c-2.99-8.514-3.632-17.329-3.384-26.259c0.205-7.368,1.544-14.51,4.41-21.322c5.574-13.248,15.425-21.454,29.443-24.495
		c9.765-2.119,19.481-1.625,28.873,1.879c12.741,4.753,20.717,14.045,24.734,26.885c1.88,6.008,2.542,12.193,2.451,18.469
		c-0.024,1.688-0.046,3.376-0.124,5.062c-0.152,3.262-1.372,4.402-4.625,4.402c-9.396-0.001-18.792-0.001-28.188-0.001
		C436.513,120.962,436.513,120.96,436.513,120.958z M424.29,104.152c4.61,0,9.22-0.002,13.83,0.001
		c1.63,0.001,3.261-0.018,4.89,0.036c0.852,0.028,1.1-0.336,0.981-1.106c-0.214-1.386-0.329-2.794-0.647-4.155
		c-1.245-5.327-3.675-9.934-8.593-12.739c-4.074-2.324-8.53-3.02-13.18-2.411c-6.611,0.866-11.51,4.133-14.384,10.254
		c-1.257,2.677-1.75,5.55-2.23,8.428c-0.276,1.654-0.233,1.689,1.456,1.691C412.371,104.155,418.331,104.152,424.29,104.152z"/>
	<path fill="#0461A1" d="M690.768,120.934c-8.553,0-17.106-0.023-25.659,0.018c-1.792,0.009-3.584,0.226-5.372,0.397
		c-0.858,0.082-1.334,0.403-1.253,1.504c0.806,10.874,6.867,17.505,17.306,19.367c4.818,0.86,9.642,0.56,14.419-0.388
		c2.853-0.566,5.353-1.989,7.778-3.538c1.753-1.119,3.492-2.261,5.263-3.35c1.357-0.834,1.752-0.797,2.999,0.205
		c0.656,0.527,1.266,1.115,1.878,1.695c3.142,2.98,6.387,5.862,9.382,8.984c2.277,2.373,2.027,1.819-0.243,3.702
		c-8.069,6.691-17.222,11.22-27.548,13.094c-10.794,1.959-21.398,1.038-31.607-3.111c-10.396-4.226-17.274-11.893-21.177-22.303
		c-2.085-5.56-3.1-11.35-3.505-17.272c-0.386-5.631-0.353-11.239,0.404-16.833c1.29-9.539,4.447-18.31,10.746-25.758
		c5.484-6.484,12.46-10.648,20.636-12.667c9.573-2.364,19.188-2.307,28.621,0.75c15.14,4.906,23.947,15.628,27.77,30.791
		c1.359,5.392,1.541,10.891,1.461,16.412c-0.02,1.407-0.048,2.813-0.073,4.219c-0.048,2.738-1.401,4.076-4.201,4.089
		c-4.67,0.021-9.341,0.014-14.011,0.016c-4.671,0.002-9.341,0-14.012,0C690.768,120.949,690.768,120.942,690.768,120.934z
		 M678.217,104.152c5.792,0,11.584,0,17.375,0c0.45,0,0.901-0.019,1.349,0.004c0.703,0.036,1.014-0.126,0.83-0.959
		c-0.363-1.642-0.523-3.33-0.909-4.965c-1.381-5.844-4.517-10.366-10.123-12.874c-4.627-2.07-9.43-2.403-14.313-1.04
		c-5.797,1.618-9.927,5.199-11.968,10.88c-0.863,2.402-1.232,4.988-1.741,7.508c-0.286,1.413-0.208,1.442,1.281,1.444
		C666.071,104.155,672.144,104.152,678.217,104.152z"/>
	<path fill="#EF7A1F" d="M320.673,114.708c-0.434,15.452-3.839,30.167-11.096,43.875c-5.452,10.299-12.521,19.325-21.632,26.681
		c-2.235,1.805-4.694,2.718-7.513,1.824c-1.088-0.345-2.176-0.967-3.033-1.724c-4.679-4.136-9.221-8.427-13.94-12.516
		c-2.915-2.525-2.252-5.961-0.029-7.988c11.93-10.876,19.381-24.349,22.492-40.171c1.631-8.297,1.573-16.642,0.161-24.99
		c-1.779-10.522-5.566-20.205-11.788-28.905c-2.333-3.262-5.022-6.204-7.964-8.924c-0.99-0.916-2.004-1.822-2.883-2.84
		c-1.394-1.613-1.455-2.812-0.253-4.573c0.661-0.968,1.409-1.913,2.268-2.705c4.094-3.774,8.216-7.52,12.384-11.213
		c1.165-1.032,2.393-2.047,4.026-2.353c2.862-0.536,5.319,0.282,7.496,2.131c8.334,7.078,14.976,15.508,20.099,25.151
		c5.38,10.126,8.722,20.907,10.243,32.252C320.467,103.354,320.819,109.022,320.673,114.708z"/>
	<path fill="#0461A1" d="M605.455,111.936c0,6.187-0.078,12.376,0.047,18.561c0.038,1.877,0.439,3.806,1.022,5.598
		c1.107,3.402,3.939,5.344,7.533,5.441c1.855,0.05,3.713-0.014,5.568,0.029c2.586,0.059,3.968,1.401,3.996,3.974
		c0.048,4.331,0.05,8.662,0.016,12.993c-0.02,2.582-1.126,3.647-3.69,3.704c-3.261,0.073-6.522,0.202-9.783,0.188
		c-3.828-0.017-7.645-0.306-11.329-1.444c-8.607-2.66-13.677-8.644-15.974-17.181c-0.838-3.114-1.115-6.29-1.114-9.512
		c0.007-23.457-0.013-46.914-0.026-70.372c-0.002-3.769-0.043-7.538,0.003-11.306c0.012-0.993,0.177-2.015,0.461-2.967
		c0.314-1.051,1.132-1.674,2.276-1.686c5.791-0.06,11.582-0.162,17.372-0.123c2.464,0.017,3.409,1.695,3.393,3.542
		c-0.042,4.833,0.062,9.667,0.12,14.5c0.016,1.346,0.035,1.359,1.398,1.364c4.388,0.015,8.775,0.006,13.163,0.032
		c2.544,0.015,3.723,1.155,3.744,3.692c0.039,4.725-0.009,9.45,0.045,14.175c0.02,1.734-1.612,3.975-3.683,3.803
		c-1.67-0.139-3.365,0.002-5.048,0.047c-2.246,0.06-4.494,0.1-6.736,0.238c-1.701,0.105-2.519,0.937-2.754,2.63
		c-0.077,0.554-0.06,1.122-0.06,1.684c-0.004,6.132-0.002,12.263-0.002,18.395C605.426,111.936,605.44,111.936,605.455,111.936z"/>
	<path fill="#0461A1" d="M733.376,94.738c0-13.668-0.002-27.337,0.003-41.005c0-1.012-0.024-2.032,0.09-3.034
		c0.206-1.807,1.065-2.649,2.849-2.681c5.676-0.102,11.353-0.185,17.03-0.188c2.326-0.001,3.563,1.379,3.628,3.74
		c0.012,0.449-0.015,0.9-0.015,1.35c-0.001,24.749-0.023,49.499,0.031,74.248c0.006,2.622,0.219,5.294,0.757,7.854
		c0.887,4.222,3.916,6.473,8.216,6.535c1.012,0.015,2.025-0.02,3.037-0.025c0.787-0.004,1.581-0.06,2.361,0.017
		c3.769,0.371,4.556,1.138,4.61,4.751c0.059,3.937,0.039,7.875-0.007,11.812c-0.01,0.821-0.164,1.685-0.461,2.447
		c-0.413,1.057-1.189,1.612-2.472,1.616c-4.328,0.016-8.658,0.29-12.982,0.218c-4.285-0.071-8.499-0.764-12.464-2.534
		c-7.61-3.396-11.737-9.528-13.423-17.438c-0.523-2.451-0.727-5.011-0.741-7.523c-0.07-13.387-0.033-26.774-0.033-40.161
		C733.386,94.738,733.381,94.738,733.376,94.738z"/>
</g>
</svg>
