<?xml version="1.0" encoding="utf-8"?>
<!-- Generator: Adobe Illustrator 22.1.0, SVG Export Plug-In . SVG Version: 6.00 Build 0)  -->
<svg version="1.2" baseProfile="tiny" id="Capa_1" xmlns="http://www.w3.org/2000/svg" xmlns:xlink="http://www.w3.org/1999/xlink"
	 x="0px" y="0px" width="850.394px" height="456.394px" viewBox="0 0 850.394 456.394" xml:space="preserve">
<g>
	<g>
		<path fill="#3D3D3D" d="M694.896,184.875v-49.458h-46.272V63.658h-59.603l0.653,72.117h-42.559l2.116,49.1h40.466v187.03
			c0,19.499,4.389,35.679,13.053,48.097c9.038,12.958,25.948,19.526,50.241,19.526c7.179,0,13.973-0.378,20.199-1.12
			c6.307-0.756,12.442-1.996,18.22-3.678l3.485-1.014V385.86l-5.476,0.732c-3.477,0.461-6.516,0.755-9.048,0.864
			c-2.629,0.119-5.086,0.174-7.354,0.174c-9.99,0-14.596-1.318-16.783-2.465c-5.119-2.56-7.611-7.783-7.611-15.969V184.875H694.896z
			"/>
	</g>
	<g>
		<rect x="489.968" y="181.743" fill="#3D3D3D" width="58.872" height="195.918"/>
	</g>
	<g>
		<path fill="#3D3D3D" d="M494.808,136.579H386.529c0.216-30.652,2.442-50.057,4.653-55.868c2.119-5.564,9.62-8.387,22.299-8.387
			c1.945,0,4.026,0.048,6.24,0.132c2.248,0.09,5.897,0.315,10.93,0.67l5.18,0.363V19.478l-4.423-0.382
			c-4.201-0.364-7.947-0.637-11.25-0.825c-39.339-2.114-66.069,7.143-79.507,26.758c-6.894,10.246-10.615,25.591-11.376,47.023
			l-0.548,44.527h-68.134h-14.516h-92.556v49.497h107.072v-0.398h68.091l0.604,191.984h57.849l-0.61-191.984h108.279V136.579z"/>
	</g>
	<g>
		<g>
			<rect x="93.336" y="92.74" fill="#36A9E1" stroke="#36A9E1" stroke-miterlimit="10" width="48.636" height="136.319"/>
			<path fill="#36A9E1" stroke="#36A9E1" stroke-miterlimit="10" d="M142.766,229.853H92.542V91.946h50.224V229.853z
				 M94.131,228.265h47.046V93.535H94.131V228.265z"/>
		</g>
		<g>
			<rect x="34.961" y="119.619" fill="#36A9E1" stroke="#36A9E1" stroke-miterlimit="10" width="48.636" height="82.552"/>
			<path fill="#36A9E1" stroke="#36A9E1" stroke-miterlimit="10" d="M84.391,202.965H34.167v-84.14h50.225V202.965z M35.756,201.376
				h47.046v-80.963H35.756V201.376z"/>
		</g>
	</g>
	<g>
		<g>
			<rect x="709.192" y="90.181" fill="#36A9E1" stroke="#36A9E1" stroke-miterlimit="10" width="48.64" height="136.319"/>
			<path fill="#36A9E1" stroke="#36A9E1" stroke-miterlimit="10" d="M758.627,227.293h-50.228V89.387h50.228V227.293z
				 M709.987,225.705h47.051V90.975h-47.051V225.705z"/>
		</g>
		<g>
			<rect x="767.567" y="117.069" fill="#36A9E1" stroke="#36A9E1" stroke-miterlimit="10" width="48.639" height="82.552"/>
			<path fill="#36A9E1" stroke="#36A9E1" stroke-miterlimit="10" d="M817,200.416h-50.227v-84.141H817V200.416z M768.362,198.826
				h47.048v-80.963h-47.048V198.826z"/>
		</g>
	</g>
</g>
</svg>
