<?xml version="1.0" encoding="UTF-8" standalone="no"?>
<svg
   xmlns:dc="http://purl.org/dc/elements/1.1/"
   xmlns:cc="http://creativecommons.org/ns#"
   xmlns:rdf="http://www.w3.org/1999/02/22-rdf-syntax-ns#"
   xmlns:svg="http://www.w3.org/2000/svg"
   xmlns="http://www.w3.org/2000/svg"
   xmlns:sodipodi="http://sodipodi.sourceforge.net/DTD/sodipodi-0.dtd"
   xmlns:inkscape="http://www.inkscape.org/namespaces/inkscape"
   width="1133.9"
   height="755.91"
   version="1.1"
   viewBox="0 0 1133.9 755.91"
   xml:space="preserve"
   id="svg109"
   sodipodi:docname="rp-logo.svg"
   inkscape:version="0.92.4 (5da689c313, 2019-01-14)"><metadata
     id="metadata113"><rdf:RDF><cc:Work
         rdf:about=""><dc:format>image/svg+xml</dc:format><dc:type
           rdf:resource="http://purl.org/dc/dcmitype/StillImage" /></cc:Work></rdf:RDF></metadata><sodipodi:namedview
     pagecolor="#ffffff"
     bordercolor="#666666"
     borderopacity="1"
     objecttolerance="10"
     gridtolerance="10"
     guidetolerance="10"
     inkscape:pageopacity="0"
     inkscape:pageshadow="2"
     inkscape:window-width="1366"
     inkscape:window-height="704"
     id="namedview111"
     showgrid="false"
     inkscape:zoom="0.31220649"
     inkscape:cx="566.95001"
     inkscape:cy="377.95499"
     inkscape:window-x="0"
     inkscape:window-y="27"
     inkscape:window-maximized="1"
     inkscape:current-layer="svg109" /><defs
     id="defs5"><clipPath
       id="clipPath18"><path
         d="M 0,566.929 H 850.394 V 0 H 0 Z"
         id="path2" /></clipPath></defs><g
     transform="matrix(1.6759171,0,0,-1.6759171,-145.52843,838.58834)"
     id="g107"><g
       clip-path="url(#clipPath18)"
       id="g105"><g
         transform="translate(91.755,220.08)"
         id="g9"><path
           d="m 0,0 h -0.918 c -1.249,0 -2.261,1.012 -2.261,2.261 v 135.3 c 0,1.249 1.012,2.261 2.261,2.261 H 0 c 1.249,0 2.262,-1.012 2.262,-2.261 v -32.287 h 0.544 c 5.049,20.202 20.75,38.065 52.68,37.857 1.251,-0.008 2.271,-1.011 2.271,-2.263 v -0.888 c 0,-1.254 -1.024,-2.279 -2.278,-2.258 C 18.721,138.352 2.262,109.017 2.262,79.159 V 2.258 C 2.262,1.009 1.249,-0.003 0,-0.003"
           id="path7"
           inkscape:connector-curvature="0"
           style="fill:#ffffff" /></g><g
         transform="translate(265.57,294.35)"
         id="g13"><path
           d="M 0,0 C 1.254,0 2.286,1.022 2.264,2.276 1.68,35.555 -17.571,63.384 -52.947,63.384 -82.522,63.384 -106.356,40.159 -109.113,2.398 -109.208,1.099 -108.159,0 -106.856,0 Z m -106.94,-5.44 c -1.271,0 -2.304,-1.049 -2.265,-2.319 1.121,-36.414 16.275,-64.33 55.172,-64.33 28.233,0 49.166,15.388 54.367,44.377 0.193,1.076 1.112,1.869 2.205,1.869 h 0.948 c 1.393,0 2.453,-1.249 2.238,-2.625 -4.774,-30.539 -28.265,-49.062 -59.214,-49.062 -43.254,-0.544 -61.208,31.556 -61.208,73.177 0,46.519 29.651,73.178 61.208,73.178 42.695,0 62.094,-34.553 61.277,-72.075 C 7.762,-4.471 6.747,-5.44 5.525,-5.44 Z"
           id="path11"
           inkscape:connector-curvature="0"
           style="fill:#ffffff" /></g><g
         transform="translate(279.81,356.73)"
         id="g17"><path
           d="M 0,0 V 0.919 C 0,2.167 1.012,3.18 2.261,3.18 h 19.417 c 1.249,0 2.261,1.012 2.261,2.26 v 28.751 c 0,22.308 15.779,23.395 27.476,23.395 3.886,0 7.086,-0.514 9.737,-0.861 1.123,-0.148 1.96,-1.108 1.96,-2.241 v -0.808 c 0,-1.365 -1.204,-2.425 -2.557,-2.241 -3.857,0.525 -6.857,0.711 -10.228,0.711 -17.41,0 -20.947,-6.257 -20.947,-19.858 V 5.44 c 0,-1.248 1.012,-2.26 2.261,-2.26 h 25.673 c 1.249,0 2.262,-1.013 2.262,-2.261 V 0 c 0,-1.249 -1.013,-2.261 -2.262,-2.261 H 31.641 c -1.249,0 -2.261,-1.012 -2.261,-2.26 v -129.86 c 0,-1.249 -1.013,-2.26 -2.262,-2.26 H 26.2 c -1.249,0 -2.261,1.011 -2.261,2.26 v 129.86 c 0,1.248 -1.012,2.26 -2.261,2.26 H 2.261 C 1.012,-2.261 0,-1.249 0,0"
           id="path15"
           inkscape:connector-curvature="0"
           style="fill:#ffffff" /></g><g
         transform="translate(698.63,356.74)"
         id="g21"><path
           d="m 0,0 v 1.416 c 0,1.116 0.904,2.022 2.021,2.022 h 27.618 c 1.116,0 2.021,0.904 2.021,2.02 v 40.175 c 0,1.116 0.905,2.021 2.022,2.021 h 1.417 c 1.116,0 2.02,-0.905 2.02,-2.021 V 5.458 c 0,-1.116 0.905,-2.02 2.022,-2.02 h 21.886 c 1.117,0 2.022,-0.906 2.022,-2.022 V 0 c 0,-1.116 -0.905,-2.021 -2.022,-2.021 H 39.141 c -1.117,0 -2.022,-0.905 -2.022,-2.021 v -106.61 c 0,-19.925 -10.098,-26.202 -22.927,-26.202 -6.82,0 -9.207,0.355 -11.591,0.635 -1.017,0.12 -1.783,0.983 -1.783,2.008 v 1.213 c 0,1.206 1.044,2.147 2.242,2.009 2.349,-0.27 5.923,-0.406 9.767,-0.406 8.461,0 18.833,0.818 18.833,21.836 v 105.52 c 0,1.116 -0.905,2.021 -2.021,2.021 H 2.021 C 0.904,-2.018 0,-1.113 0,0.003"
           id="path19"
           inkscape:connector-curvature="0"
           style="fill:#ffffff" /></g><g
         transform="translate(570.14,267.65)"
         id="g25"><path
           d="m 0,0 c 1.021,0 1.896,-0.758 2.006,-1.771 2.957,-27.074 24.711,-43.81 51.693,-43.81 37.12,0 56.772,30.569 56.772,64.96 0,33.026 -15.284,70.964 -60.046,70.964 C 27.704,90.343 8.125,77.778 3.224,51.624 3.042,50.658 2.215,49.948 1.232,49.948 h -1.433 c -1.248,0 -2.195,1.121 -2,2.354 4.464,28.245 27.123,43.5 52.626,43.5 45.035,0 65.506,-35.755 65.506,-76.423 0,-38.212 -22.382,-70.419 -62.232,-70.419 -30.88,0 -53.192,18.694 -57.059,48.74 -0.157,1.217 0.78,2.3 2.006,2.3 z"
           id="path23"
           inkscape:connector-curvature="0"
           style="fill:#ffffff" /></g><g
         transform="translate(543.63,294.4)"
         id="g29"><path
           d="m 0,0 c 1.181,0 2.099,1.007 2.016,2.184 -2.69,38.017 -26.637,61.411 -56.369,61.411 -35.585,0 -54.909,-28.063 -55.4,-61.565 C -109.77,0.91 -108.85,0 -107.73,0 Z m -113.26,-5.459 c -1.092,0 -1.998,0.868 -2.024,1.959 -0.907,37.739 18.549,72.554 61.477,72.554 31.661,0 61.411,-26.748 61.411,-73.421 0,-41.76 -18.013,-73.967 -61.411,-73.421 -31.151,0 -54.77,18.699 -59.457,49.513 -0.187,1.23 0.754,2.345 1.999,2.345 h 1.429 c 0.988,0 1.82,-0.717 1.992,-1.691 5.164,-29.203 26.195,-44.708 54.583,-44.708 39.116,0 54.301,28.141 55.363,64.802 0.032,1.133 -0.889,2.068 -2.024,2.068 z"
           id="path27"
           inkscape:connector-curvature="0"
           style="fill:#ffffff" /></g><g
         transform="translate(385.72,480.99)"
         id="g33"><path
           d="m 0,0 c 4.618,0 8.361,-3.743 8.361,-8.361 v -284.66 c 0,-4.618 -3.743,-8.361 -8.361,-8.361 -4.617,0 -8.36,3.743 -8.36,8.361 V -8.361 C -8.36,-3.743 -4.617,0 0,0"
           id="path31"
           inkscape:connector-curvature="0"
           style="fill:#ffffff" /></g><g
         transform="translate(512.36,120.52)"
         id="g37"><path
           d="m 0,0 h -25.146 c 4.638,0 8.096,-0.708 10.847,-1.967 5.973,-2.592 8.253,-7.545 8.253,-13.047 0,-6.758 -4.244,-11.474 -10.06,-13.283 v -0.157 c 1.572,-0.864 3.851,-3.694 6.602,-8.489 l 8.409,-14.855 H 15.092 V -9.117 H 0 Z"
           id="path35"
           inkscape:connector-curvature="0"
           style="fill:#ffffff" /></g><g
         transform="translate(465.97,68.724)"
         id="g41"><path
           d="M 0,0 H 5.764 V 51.798 H -21.047 Z"
           id="path39"
           inkscape:connector-curvature="0"
           style="fill:#ffffff" /></g><g
         transform="translate(491.7,98.121)"
         id="g45"><path
           d="m 0,0 c 2.045,1.256 3.459,3.379 3.459,6.287 0,2.751 -1.258,5.109 -3.537,6.288 -1.18,0.708 -2.673,1.101 -5.03,1.101 H -9.195 V -1.103 h 4.008 c 2.358,0 3.851,0.395 5.187,1.103"
           id="path43"
           inkscape:connector-curvature="0"
           style="fill:#ffffff" /></g><g
         transform="translate(408.54,118.32)"
         id="g49"><path
           d="m 0,0 c 5.659,-2.672 8.725,-7.781 8.725,-14.933 0,-6.052 -2.594,-12.498 -10.297,-15.485 -2.908,-1.1 -6.524,-1.808 -11.082,-1.808 h -1.808 v -17.37 H 7.36 L 27.469,2.202 h -39.18 C -6.995,2.202 -3.065,1.572 0,0"
           id="path47"
           inkscape:connector-curvature="0"
           style="fill:#ffffff" /></g><g
         transform="translate(486.43,88.296)"
         id="g53"><path
           d="M 0,0 H -3.93 V -19.572 H 12.497 L 5.659,-7.153 C 3.065,-2.279 1.258,-0.315 0,0"
           id="path51"
           inkscape:connector-curvature="0"
           style="fill:#ffffff" /></g><g
         transform="translate(597.06,86.094)"
         id="g57"><path
           d="M 0,0 H 0.157 C 0,2.751 0,6.21 0,8.646 V 34.428 H -26.095 L -5.266,7.153 C -3.223,4.559 -1.572,2.279 0,0"
           id="path55"
           inkscape:connector-curvature="0"
           style="fill:#ffffff" /></g><g
         transform="translate(440.74,106.45)"
         id="g61"><path
           d="m 0,0 h -0.156 c -0.394,-1.808 -1.18,-4.008 -2.595,-7.781 l -3.144,-8.646 H 5.424 L 2.358,-7.702 C 1.101,-3.931 0.472,-1.729 0,0"
           id="path59"
           inkscape:connector-curvature="0"
           style="fill:#ffffff" /></g><g
         transform="translate(402.1,95.841)"
         id="g65"><path
           d="m 0,0 c 2.751,1.257 4.009,3.929 4.009,7.546 0,2.987 -1.179,5.659 -3.773,7.23 -1.494,0.865 -3.38,1.18 -5.973,1.18 h -2.28 V -1.022 h 2.437 c 2.279,0 4.165,0.315 5.58,1.022"
           id="path63"
           inkscape:connector-curvature="0"
           style="fill:#ffffff" /></g><g
         transform="translate(431.78,81.379)"
         id="g69"><path
           d="M 0,0 -4.794,-12.655 H 22.637 L 17.606,0 Z"
           id="path67"
           inkscape:connector-curvature="0"
           style="fill:#ffffff" /></g><g
         transform="translate(679.24,98.121)"
         id="g73"><path
           d="m 0,0 c 2.045,1.256 3.459,3.379 3.459,6.287 0,2.751 -1.258,5.109 -3.537,6.288 -1.18,0.708 -2.673,1.101 -5.03,1.101 H -9.195 V -1.103 h 4.008 c 2.358,0 3.851,0.395 5.187,1.103"
           id="path71"
           inkscape:connector-curvature="0"
           style="fill:#ffffff" /></g><g
         transform="translate(551.82,111.4)"
         id="g77"><path
           d="M 0,0 H -13.598 V -42.681 H 8.373 V 9.117 H 2.83 Z"
           id="path75"
           inkscape:connector-curvature="0"
           style="fill:#ffffff" /></g><g
         transform="translate(673.97,88.296)"
         id="g81"><path
           d="M 0,0 H -3.93 V -19.572 H 12.497 L 5.659,-7.153 C 3.065,-2.279 1.258,-0.315 0,0"
           id="path79"
           inkscape:connector-curvature="0"
           style="fill:#ffffff" /></g><g
         transform="translate(705.25,106.3)"
         id="g85"><path
           d="m 0,0 c 0,6.51 4.361,12.454 12.319,14.227 h -42.81 c 4.637,0 8.095,-0.708 10.846,-1.967 5.974,-2.592 8.253,-7.545 8.253,-13.047 0,-6.759 -4.244,-11.475 -10.06,-13.283 v -0.158 c 1.572,-0.864 3.851,-3.694 6.602,-8.489 l 8.41,-14.854 H 7.418 c -3.455,0.768 -6.645,2.088 -9.147,3.929 l 4.086,8.097 c 3.302,-2.201 7.232,-3.852 11.79,-3.852 4.009,0 8.018,1.415 8.018,5.345 C 22.165,-14.699 0,-15.878 0,0"
           id="path83"
           inkscape:connector-curvature="0"
           style="fill:#ffffff" /></g><g
         transform="translate(722.93,112.03)"
         id="g89"><path
           d="m 0,0 c -3.301,0 -6.21,-1.179 -6.21,-4.794 0,-6.722 12.909,-7.586 19.022,-14.959 V -3.379 C 8.331,-1.179 4.165,0 0,0"
           id="path87"
           inkscape:connector-curvature="0"
           style="fill:#ffffff" /></g><g
         transform="translate(728.77,120.52)"
         id="g93"><path
           d="M 0,0 C 2.8,-0.506 5.187,-1.309 6.973,-2.202 V 0 Z"
           id="path91"
           inkscape:connector-curvature="0"
           style="fill:#ffffff" /></g><g
         transform="translate(646.64,111.4)"
         id="g97"><path
           d="M 0,0 H -16.349 V -11.948 H 0.078 v -9.039 h -16.427 v -12.576 h 19.1 v -9.118 h 9.882 V 9.117 H 2.829 Z"
           id="path95"
           inkscape:connector-curvature="0"
           style="fill:#ffffff" /></g><g
         transform="translate(570.88,104.25)"
         id="g101"><path
           d="M 0,0 H -0.158 C 0.078,-1.887 0.078,-5.109 0.078,-7.625 V -35.527 H 27.037 L 5.344,-7.153 C 3.457,-4.638 1.808,-2.279 0,0"
           id="path99"
           inkscape:connector-curvature="0"
           style="fill:#ffffff" /></g><path
         d="m 607.82,68.724 h 11.699 v 51.798 H 607.82 Z"
         id="path103"
         inkscape:connector-curvature="0"
         style="fill:#ffffff" /></g></g></svg>