<svg xmlns="http://www.w3.org/2000/svg" width="1133.9" height="755.91">
  <defs>
    <clipPath id="a">
      <path d="M0 566.929h850.394V0H0z"/>
    </clipPath>
  </defs>
  <g clip-path="url(#a)" transform="matrix(1.67592 0 0 -1.67592 -145.528 838.588)">
    <path d="M91.755 220.08h-.918a2.26 2.26 0 00-2.261 2.261v135.3a2.26 2.26 0 002.261 2.261h.918a2.261 2.261 0 002.262-2.261v-32.287h.544c5.049 20.202 20.75 38.065 52.68 37.857 1.251-.008 2.271-1.011 2.271-2.263v-.888c0-1.254-1.024-2.279-2.278-2.258-36.758.63-53.217-28.705-53.217-58.563v-76.901a2.261 2.261 0 00-2.262-2.261M265.57 294.35c1.254 0 2.286 1.022 2.264 2.276-.584 33.279-19.835 61.108-55.211 61.108-29.575 0-53.409-23.225-56.166-60.986-.095-1.299.954-2.398 2.257-2.398zm-106.94-5.44c-1.271 0-2.304-1.049-2.265-2.319 1.121-36.414 16.275-64.33 55.172-64.33 28.233 0 49.166 15.388 54.367 44.377a2.248 2.248 0 002.205 1.869h.948a2.271 2.271 0 002.238-2.625c-4.774-30.539-28.265-49.062-59.214-49.062-43.254-.544-61.208 31.556-61.208 73.177 0 46.519 29.651 73.178 61.208 73.178 42.695 0 62.094-34.553 61.277-72.075-.026-1.221-1.041-2.19-2.263-2.19zM279.81 356.73v.919a2.261 2.261 0 002.261 2.261h19.417a2.26 2.26 0 012.261 2.26v28.751c0 22.308 15.779 23.395 27.476 23.395 3.886 0 7.086-.514 9.737-.861a2.258 2.258 0 001.96-2.241v-.808a2.26 2.26 0 00-2.557-2.241c-3.857.525-6.857.711-10.228.711-17.41 0-20.947-6.257-20.947-19.858V362.17a2.26 2.26 0 012.261-2.26h25.673a2.262 2.262 0 002.262-2.261v-.919a2.261 2.261 0 00-2.262-2.261h-25.673a2.26 2.26 0 01-2.261-2.26v-129.86a2.26 2.26 0 00-2.262-2.26h-.918a2.26 2.26 0 00-2.261 2.26v129.86a2.26 2.26 0 01-2.261 2.26h-19.417a2.26 2.26 0 00-2.261 2.261M698.63 356.74v1.416c0 1.116.904 2.022 2.021 2.022h27.618a2.02 2.02 0 012.021 2.02v40.175c0 1.116.905 2.021 2.022 2.021h1.417a2.02 2.02 0 002.02-2.021v-40.175a2.02 2.02 0 012.022-2.02h21.886a2.022 2.022 0 002.022-2.022v-1.416a2.021 2.021 0 00-2.022-2.021h-21.886a2.021 2.021 0 01-2.022-2.021v-106.61c0-19.925-10.098-26.202-22.927-26.202-6.82 0-9.207.355-11.591.635a2.02 2.02 0 00-1.783 2.008v1.213a2.015 2.015 0 002.242 2.009c2.349-.27 5.923-.406 9.767-.406 8.461 0 18.833.818 18.833 21.836v105.52a2.021 2.021 0 01-2.021 2.021h-27.618a2.02 2.02 0 00-2.021 2.021M570.14 267.65c1.021 0 1.896-.758 2.006-1.771 2.957-27.074 24.711-43.81 51.693-43.81 37.12 0 56.772 30.569 56.772 64.96 0 33.026-15.284 70.964-60.046 70.964-22.721 0-42.3-12.565-47.201-38.719a2.035 2.035 0 00-1.992-1.676h-1.433a2.032 2.032 0 00-2 2.354c4.464 28.245 27.123 43.5 52.626 43.5 45.035 0 65.506-35.755 65.506-76.423 0-38.212-22.382-70.419-62.232-70.419-30.88 0-53.192 18.694-57.059 48.74a2.03 2.03 0 002.006 2.3zM543.63 294.4a2.029 2.029 0 012.016 2.184c-2.69 38.017-26.637 61.411-56.369 61.411-35.585 0-54.909-28.063-55.4-61.565-.017-1.12.903-2.03 2.023-2.03zm-113.26-5.459a2.02 2.02 0 00-2.024 1.959c-.907 37.739 18.549 72.554 61.477 72.554 31.661 0 61.411-26.748 61.411-73.421 0-41.76-18.013-73.967-61.411-73.421-31.151 0-54.77 18.699-59.457 49.513-.187 1.23.754 2.345 1.999 2.345h1.429a2.03 2.03 0 001.992-1.691c5.164-29.203 26.195-44.708 54.583-44.708 39.116 0 54.301 28.141 55.363 64.802a2.021 2.021 0 01-2.024 2.068zM385.72 480.99a8.36 8.36 0 008.361-8.361v-284.66a8.36 8.36 0 10-16.721 0v284.66a8.36 8.36 0 008.36 8.361M512.36 120.52h-25.146c4.638 0 8.096-.708 10.847-1.967 5.973-2.592 8.253-7.545 8.253-13.047 0-6.758-4.244-11.474-10.06-13.283v-.157c1.572-.864 3.851-3.694 6.602-8.489l8.409-14.855h16.187v42.681H512.36zM465.97 68.724h5.764v51.798h-26.811z" fill="#fff"/>
    <path d="M491.7 98.121c2.045 1.256 3.459 3.379 3.459 6.287 0 2.751-1.258 5.109-3.537 6.288-1.18.708-2.673 1.101-5.03 1.101h-4.087V97.018h4.008c2.358 0 3.851.395 5.187 1.103M408.54 118.32c5.659-2.672 8.725-7.781 8.725-14.933 0-6.052-2.594-12.498-10.297-15.485-2.908-1.1-6.524-1.808-11.082-1.808h-1.808v-17.37H415.9l20.109 51.798h-39.18c4.716 0 8.646-.63 11.711-2.202M486.43 88.296h-3.93V68.724h16.427l-6.838 12.419c-2.594 4.874-4.401 6.838-5.659 7.153M597.06 86.094h.157c-.157 2.751-.157 6.21-.157 8.646v25.782h-26.095l20.829-27.275a136.343 136.343 0 005.266-7.153M440.74 106.45h-.156c-.394-1.808-1.18-4.008-2.595-7.781l-3.144-8.646h11.319l-3.066 8.725c-1.257 3.771-1.886 5.973-2.358 7.702" fill="#fff"/>
    <path d="M402.1 95.841c2.751 1.257 4.009 3.929 4.009 7.546 0 2.987-1.179 5.659-3.773 7.23-1.494.865-3.38 1.18-5.973 1.18h-2.28V94.819h2.437c2.279 0 4.165.315 5.58 1.022M431.78 81.379l-4.794-12.655h27.431l-5.031 12.655zM679.24 98.121c2.045 1.256 3.459 3.379 3.459 6.287 0 2.751-1.258 5.109-3.537 6.288-1.18.708-2.673 1.101-5.03 1.101h-4.087V97.018h4.008c2.358 0 3.851.395 5.187 1.103M551.82 111.4h-13.598V68.719h21.971v51.798h-5.543zM673.97 88.296h-3.93V68.724h16.427l-6.838 12.419c-2.594 4.874-4.401 6.838-5.659 7.153" fill="#fff"/>
    <path d="M705.25 106.3c0 6.51 4.361 12.454 12.319 14.227h-42.81c4.637 0 8.095-.708 10.846-1.967 5.974-2.592 8.253-7.545 8.253-13.047 0-6.759-4.244-11.475-10.06-13.283v-.158c1.572-.864 3.851-3.694 6.602-8.489l8.41-14.854h13.858c-3.455.768-6.645 2.088-9.147 3.929l4.086 8.097c3.302-2.201 7.232-3.852 11.79-3.852 4.009 0 8.018 1.415 8.018 5.345 0 9.353-22.165 8.174-22.165 24.052" fill="#fff"/>
    <path d="M722.93 112.03c-3.301 0-6.21-1.179-6.21-4.794 0-6.722 12.909-7.586 19.022-14.959v16.374c-4.481 2.2-8.647 3.379-12.812 3.379M728.77 120.52c2.8-.506 5.187-1.309 6.973-2.202v2.202zM646.64 111.4h-16.349V99.452h16.427v-9.039h-16.427V77.837h19.1v-9.118h9.882v51.798h-9.804zM570.88 104.25h-.158c.236-1.887.236-5.109.236-7.625V68.723h26.959l-21.693 28.374c-1.887 2.515-3.536 4.874-5.344 7.153M607.82 68.724h11.699v51.798H607.82z" fill="#fff"/>
  </g>
</svg>
